<?xml version="1.0" encoding="utf-8" standalone="no"?>
<!DOCTYPE svg PUBLIC "-//W3C//DTD SVG 1.1//EN"
  "http://www.w3.org/Graphics/SVG/1.1/DTD/svg11.dtd">
<!-- Created with matplotlib (https://matplotlib.org/) -->
<svg height="1440pt" version="1.1" viewBox="0 0 720 1440" width="720pt" xmlns="http://www.w3.org/2000/svg" xmlns:xlink="http://www.w3.org/1999/xlink">
 <metadata>
  <rdf:RDF xmlns:cc="http://creativecommons.org/ns#" xmlns:dc="http://purl.org/dc/elements/1.1/" xmlns:rdf="http://www.w3.org/1999/02/22-rdf-syntax-ns#">
   <cc:Work>
    <dc:type rdf:resource="http://purl.org/dc/dcmitype/StillImage"/>
    <dc:date>2020-12-18T16:42:26.186737</dc:date>
    <dc:format>image/svg+xml</dc:format>
    <dc:creator>
     <cc:Agent>
      <dc:title>Matplotlib v3.3.3, https://matplotlib.org/</dc:title>
     </cc:Agent>
    </dc:creator>
   </cc:Work>
  </rdf:RDF>
 </metadata>
 <defs>
  <style type="text/css">*{stroke-linecap:butt;stroke-linejoin:round;}</style>
 </defs>
 <g id="figure_1">
  <g id="patch_1">
   <path d="M 0 1440 
L 720 1440 
L 720 0 
L 0 0 
z
" style="fill:#212946;"/>
  </g>
  <g id="axes_1">
   <g id="patch_2">
    <path d="M 224.425 1383.7 
L 709.2 1383.7 
L 709.2 44.6 
L 224.425 44.6 
z
" style="fill:#212946;"/>
   </g>
   <g id="matplotlib.axis_1">
    <g id="xtick_1">
     <g id="line2d_1">
      <path clip-path="url(#p89cc08b85c)" d="M 224.425 1383.7 
L 224.425 44.6 
" style="fill:none;stroke:#2a3459;stroke-linecap:round;stroke-width:0.8;"/>
     </g>
     <g id="line2d_2"/>
     <g id="text_1">
      <!-- 0 -->
      <g style="fill:#e6e6e6;" transform="translate(218.864062 1401.515625)scale(0.2 -0.2)">
       <defs>
        <path d="M 4.15625 35.296875 
Q 4.15625 48 6.765625 55.734375 
Q 9.375 63.484375 14.515625 67.671875 
Q 19.671875 71.875 27.484375 71.875 
Q 33.25 71.875 37.59375 69.546875 
Q 41.9375 67.234375 44.765625 62.859375 
Q 47.609375 58.5 49.21875 52.21875 
Q 50.828125 45.953125 50.828125 35.296875 
Q 50.828125 22.703125 48.234375 14.96875 
Q 45.65625 7.234375 40.5 3 
Q 35.359375 -1.21875 27.484375 -1.21875 
Q 17.140625 -1.21875 11.234375 6.203125 
Q 4.15625 15.140625 4.15625 35.296875 
z
M 13.1875 35.296875 
Q 13.1875 17.671875 17.3125 11.828125 
Q 21.4375 6 27.484375 6 
Q 33.546875 6 37.671875 11.859375 
Q 41.796875 17.71875 41.796875 35.296875 
Q 41.796875 52.984375 37.671875 58.78125 
Q 33.546875 64.59375 27.390625 64.59375 
Q 21.34375 64.59375 17.71875 59.46875 
Q 13.1875 52.9375 13.1875 35.296875 
z
" id="ArialMT-48"/>
       </defs>
       <use xlink:href="#ArialMT-48"/>
      </g>
     </g>
    </g>
    <g id="xtick_2">
     <g id="line2d_3">
      <path clip-path="url(#p89cc08b85c)" d="M 336.01495 1383.7 
L 336.01495 44.6 
" style="fill:none;stroke:#2a3459;stroke-linecap:round;stroke-width:0.8;"/>
     </g>
     <g id="line2d_4"/>
     <g id="text_2">
      <!-- 2 -->
      <g style="fill:#e6e6e6;" transform="translate(330.454013 1401.515625)scale(0.2 -0.2)">
       <defs>
        <path d="M 50.34375 8.453125 
L 50.34375 0 
L 3.03125 0 
Q 2.9375 3.171875 4.046875 6.109375 
Q 5.859375 10.9375 9.828125 15.625 
Q 13.8125 20.3125 21.34375 26.46875 
Q 33.015625 36.03125 37.109375 41.625 
Q 41.21875 47.21875 41.21875 52.203125 
Q 41.21875 57.421875 37.46875 61 
Q 33.734375 64.59375 27.734375 64.59375 
Q 21.390625 64.59375 17.578125 60.78125 
Q 13.765625 56.984375 13.71875 50.25 
L 4.6875 51.171875 
Q 5.609375 61.28125 11.65625 66.578125 
Q 17.71875 71.875 27.9375 71.875 
Q 38.234375 71.875 44.234375 66.15625 
Q 50.25 60.453125 50.25 52 
Q 50.25 47.703125 48.484375 43.546875 
Q 46.734375 39.40625 42.65625 34.8125 
Q 38.578125 30.21875 29.109375 22.21875 
Q 21.1875 15.578125 18.9375 13.203125 
Q 16.703125 10.84375 15.234375 8.453125 
z
" id="ArialMT-50"/>
       </defs>
       <use xlink:href="#ArialMT-50"/>
      </g>
     </g>
    </g>
    <g id="xtick_3">
     <g id="line2d_5">
      <path clip-path="url(#p89cc08b85c)" d="M 447.6049 1383.7 
L 447.6049 44.6 
" style="fill:none;stroke:#2a3459;stroke-linecap:round;stroke-width:0.8;"/>
     </g>
     <g id="line2d_6"/>
     <g id="text_3">
      <!-- 4 -->
      <g style="fill:#e6e6e6;" transform="translate(442.043963 1401.515625)scale(0.2 -0.2)">
       <defs>
        <path d="M 32.328125 0 
L 32.328125 17.140625 
L 1.265625 17.140625 
L 1.265625 25.203125 
L 33.9375 71.578125 
L 41.109375 71.578125 
L 41.109375 25.203125 
L 50.78125 25.203125 
L 50.78125 17.140625 
L 41.109375 17.140625 
L 41.109375 0 
z
M 32.328125 25.203125 
L 32.328125 57.46875 
L 9.90625 25.203125 
z
" id="ArialMT-52"/>
       </defs>
       <use xlink:href="#ArialMT-52"/>
      </g>
     </g>
    </g>
    <g id="xtick_4">
     <g id="line2d_7">
      <path clip-path="url(#p89cc08b85c)" d="M 559.19485 1383.7 
L 559.19485 44.6 
" style="fill:none;stroke:#2a3459;stroke-linecap:round;stroke-width:0.8;"/>
     </g>
     <g id="line2d_8"/>
     <g id="text_4">
      <!-- 6 -->
      <g style="fill:#e6e6e6;" transform="translate(553.633913 1401.515625)scale(0.2 -0.2)">
       <defs>
        <path d="M 49.75 54.046875 
L 41.015625 53.375 
Q 39.84375 58.546875 37.703125 60.890625 
Q 34.125 64.65625 28.90625 64.65625 
Q 24.703125 64.65625 21.53125 62.3125 
Q 17.390625 59.28125 14.984375 53.46875 
Q 12.59375 47.65625 12.5 36.921875 
Q 15.671875 41.75 20.265625 44.09375 
Q 24.859375 46.4375 29.890625 46.4375 
Q 38.671875 46.4375 44.84375 39.96875 
Q 51.03125 33.5 51.03125 23.25 
Q 51.03125 16.5 48.125 10.71875 
Q 45.21875 4.9375 40.140625 1.859375 
Q 35.0625 -1.21875 28.609375 -1.21875 
Q 17.625 -1.21875 10.6875 6.859375 
Q 3.765625 14.9375 3.765625 33.5 
Q 3.765625 54.25 11.421875 63.671875 
Q 18.109375 71.875 29.4375 71.875 
Q 37.890625 71.875 43.28125 67.140625 
Q 48.6875 62.40625 49.75 54.046875 
z
M 13.875 23.1875 
Q 13.875 18.65625 15.796875 14.5 
Q 17.71875 10.359375 21.1875 8.171875 
Q 24.65625 6 28.46875 6 
Q 34.03125 6 38.03125 10.484375 
Q 42.046875 14.984375 42.046875 22.703125 
Q 42.046875 30.125 38.078125 34.390625 
Q 34.125 38.671875 28.125 38.671875 
Q 22.171875 38.671875 18.015625 34.390625 
Q 13.875 30.125 13.875 23.1875 
z
" id="ArialMT-54"/>
       </defs>
       <use xlink:href="#ArialMT-54"/>
      </g>
     </g>
    </g>
    <g id="xtick_5">
     <g id="line2d_9">
      <path clip-path="url(#p89cc08b85c)" d="M 670.7848 1383.7 
L 670.7848 44.6 
" style="fill:none;stroke:#2a3459;stroke-linecap:round;stroke-width:0.8;"/>
     </g>
     <g id="line2d_10"/>
     <g id="text_5">
      <!-- 8 -->
      <g style="fill:#e6e6e6;" transform="translate(665.223863 1401.515625)scale(0.2 -0.2)">
       <defs>
        <path d="M 17.671875 38.8125 
Q 12.203125 40.828125 9.5625 44.53125 
Q 6.9375 48.25 6.9375 53.421875 
Q 6.9375 61.234375 12.546875 66.546875 
Q 18.171875 71.875 27.484375 71.875 
Q 36.859375 71.875 42.578125 66.421875 
Q 48.296875 60.984375 48.296875 53.171875 
Q 48.296875 48.1875 45.671875 44.5 
Q 43.0625 40.828125 37.75 38.8125 
Q 44.34375 36.671875 47.78125 31.875 
Q 51.21875 27.09375 51.21875 20.453125 
Q 51.21875 11.28125 44.71875 5.03125 
Q 38.234375 -1.21875 27.640625 -1.21875 
Q 17.046875 -1.21875 10.546875 5.046875 
Q 4.046875 11.328125 4.046875 20.703125 
Q 4.046875 27.6875 7.59375 32.390625 
Q 11.140625 37.109375 17.671875 38.8125 
z
M 15.921875 53.71875 
Q 15.921875 48.640625 19.1875 45.40625 
Q 22.46875 42.1875 27.6875 42.1875 
Q 32.765625 42.1875 36.015625 45.375 
Q 39.265625 48.578125 39.265625 53.21875 
Q 39.265625 58.0625 35.90625 61.359375 
Q 32.5625 64.65625 27.59375 64.65625 
Q 22.5625 64.65625 19.234375 61.421875 
Q 15.921875 58.203125 15.921875 53.71875 
z
M 13.09375 20.65625 
Q 13.09375 16.890625 14.875 13.375 
Q 16.65625 9.859375 20.171875 7.921875 
Q 23.6875 6 27.734375 6 
Q 34.03125 6 38.125 10.046875 
Q 42.234375 14.109375 42.234375 20.359375 
Q 42.234375 26.703125 38.015625 30.859375 
Q 33.796875 35.015625 27.4375 35.015625 
Q 21.234375 35.015625 17.15625 30.90625 
Q 13.09375 26.8125 13.09375 20.65625 
z
" id="ArialMT-56"/>
       </defs>
       <use xlink:href="#ArialMT-56"/>
      </g>
     </g>
    </g>
    <g id="text_6">
     <!-- tonCO2 equivalente anual -->
     <g style="fill:#e6e6e6;" transform="translate(351.18125 1424.0625)scale(0.2 -0.2)">
      <defs>
       <path d="M 25.78125 7.859375 
L 27.046875 0.09375 
Q 23.34375 -0.6875 20.40625 -0.6875 
Q 15.625 -0.6875 12.984375 0.828125 
Q 10.359375 2.34375 9.28125 4.8125 
Q 8.203125 7.28125 8.203125 15.1875 
L 8.203125 45.015625 
L 1.765625 45.015625 
L 1.765625 51.859375 
L 8.203125 51.859375 
L 8.203125 64.703125 
L 16.9375 69.96875 
L 16.9375 51.859375 
L 25.78125 51.859375 
L 25.78125 45.015625 
L 16.9375 45.015625 
L 16.9375 14.703125 
Q 16.9375 10.9375 17.40625 9.859375 
Q 17.875 8.796875 18.921875 8.15625 
Q 19.96875 7.515625 21.921875 7.515625 
Q 23.390625 7.515625 25.78125 7.859375 
z
" id="ArialMT-116"/>
       <path d="M 3.328125 25.921875 
Q 3.328125 40.328125 11.328125 47.265625 
Q 18.015625 53.03125 27.640625 53.03125 
Q 38.328125 53.03125 45.109375 46.015625 
Q 51.90625 39.015625 51.90625 26.65625 
Q 51.90625 16.65625 48.90625 10.90625 
Q 45.90625 5.171875 40.15625 2 
Q 34.421875 -1.171875 27.640625 -1.171875 
Q 16.75 -1.171875 10.03125 5.8125 
Q 3.328125 12.796875 3.328125 25.921875 
z
M 12.359375 25.921875 
Q 12.359375 15.96875 16.703125 11.015625 
Q 21.046875 6.0625 27.640625 6.0625 
Q 34.1875 6.0625 38.53125 11.03125 
Q 42.875 16.015625 42.875 26.21875 
Q 42.875 35.84375 38.5 40.796875 
Q 34.125 45.75 27.640625 45.75 
Q 21.046875 45.75 16.703125 40.8125 
Q 12.359375 35.890625 12.359375 25.921875 
z
" id="ArialMT-111"/>
       <path d="M 6.59375 0 
L 6.59375 51.859375 
L 14.5 51.859375 
L 14.5 44.484375 
Q 20.21875 53.03125 31 53.03125 
Q 35.6875 53.03125 39.625 51.34375 
Q 43.5625 49.65625 45.515625 46.921875 
Q 47.46875 44.1875 48.25 40.4375 
Q 48.734375 37.984375 48.734375 31.890625 
L 48.734375 0 
L 39.9375 0 
L 39.9375 31.546875 
Q 39.9375 36.921875 38.90625 39.578125 
Q 37.890625 42.234375 35.28125 43.8125 
Q 32.671875 45.40625 29.15625 45.40625 
Q 23.53125 45.40625 19.453125 41.84375 
Q 15.375 38.28125 15.375 28.328125 
L 15.375 0 
z
" id="ArialMT-110"/>
       <path d="M 58.796875 25.09375 
L 68.265625 22.703125 
Q 65.28125 11.03125 57.546875 4.90625 
Q 49.8125 -1.21875 38.625 -1.21875 
Q 27.046875 -1.21875 19.796875 3.484375 
Q 12.546875 8.203125 8.765625 17.140625 
Q 4.984375 26.078125 4.984375 36.328125 
Q 4.984375 47.515625 9.25 55.828125 
Q 13.53125 64.15625 21.40625 68.46875 
Q 29.296875 72.796875 38.765625 72.796875 
Q 49.515625 72.796875 56.828125 67.328125 
Q 64.15625 61.859375 67.046875 51.953125 
L 57.71875 49.75 
Q 55.21875 57.5625 50.484375 61.125 
Q 45.75 64.703125 38.578125 64.703125 
Q 30.328125 64.703125 24.78125 60.734375 
Q 19.234375 56.78125 16.984375 50.109375 
Q 14.75 43.453125 14.75 36.375 
Q 14.75 27.25 17.40625 20.4375 
Q 20.0625 13.625 25.671875 10.25 
Q 31.296875 6.890625 37.84375 6.890625 
Q 45.796875 6.890625 51.3125 11.46875 
Q 56.84375 16.0625 58.796875 25.09375 
z
" id="ArialMT-67"/>
       <path d="M 4.828125 34.859375 
Q 4.828125 52.6875 14.390625 62.765625 
Q 23.96875 72.859375 39.109375 72.859375 
Q 49.03125 72.859375 56.984375 68.109375 
Q 64.9375 63.375 69.109375 54.90625 
Q 73.296875 46.4375 73.296875 35.6875 
Q 73.296875 24.8125 68.890625 16.21875 
Q 64.5 7.625 56.4375 3.203125 
Q 48.390625 -1.21875 39.0625 -1.21875 
Q 28.953125 -1.21875 20.984375 3.65625 
Q 13.03125 8.546875 8.921875 16.984375 
Q 4.828125 25.4375 4.828125 34.859375 
z
M 14.59375 34.71875 
Q 14.59375 21.78125 21.546875 14.328125 
Q 28.515625 6.890625 39.015625 6.890625 
Q 49.703125 6.890625 56.609375 14.40625 
Q 63.53125 21.921875 63.53125 35.75 
Q 63.53125 44.484375 60.578125 51 
Q 57.625 57.515625 51.921875 61.109375 
Q 46.234375 64.703125 39.15625 64.703125 
Q 29.109375 64.703125 21.84375 57.78125 
Q 14.59375 50.875 14.59375 34.71875 
z
" id="ArialMT-79"/>
       <path id="ArialMT-32"/>
       <path d="M 42.09375 16.703125 
L 51.171875 15.578125 
Q 49.03125 7.625 43.21875 3.21875 
Q 37.40625 -1.171875 28.375 -1.171875 
Q 17 -1.171875 10.328125 5.828125 
Q 3.65625 12.84375 3.65625 25.484375 
Q 3.65625 38.578125 10.390625 45.796875 
Q 17.140625 53.03125 27.875 53.03125 
Q 38.28125 53.03125 44.875 45.953125 
Q 51.46875 38.875 51.46875 26.03125 
Q 51.46875 25.25 51.421875 23.6875 
L 12.75 23.6875 
Q 13.234375 15.140625 17.578125 10.59375 
Q 21.921875 6.0625 28.421875 6.0625 
Q 33.25 6.0625 36.671875 8.59375 
Q 40.09375 11.140625 42.09375 16.703125 
z
M 13.234375 30.90625 
L 42.1875 30.90625 
Q 41.609375 37.453125 38.875 40.71875 
Q 34.671875 45.796875 27.984375 45.796875 
Q 21.921875 45.796875 17.796875 41.75 
Q 13.671875 37.703125 13.234375 30.90625 
z
" id="ArialMT-101"/>
       <path d="M 39.65625 -19.875 
L 39.65625 5.515625 
Q 37.59375 2.640625 33.90625 0.734375 
Q 30.21875 -1.171875 26.078125 -1.171875 
Q 16.84375 -1.171875 10.171875 6.203125 
Q 3.515625 13.578125 3.515625 26.421875 
Q 3.515625 34.234375 6.21875 40.421875 
Q 8.9375 46.625 14.078125 49.828125 
Q 19.234375 53.03125 25.390625 53.03125 
Q 35.015625 53.03125 40.53125 44.921875 
L 40.53125 51.859375 
L 48.4375 51.859375 
L 48.4375 -19.875 
z
M 12.546875 26.078125 
Q 12.546875 16.0625 16.75 11.0625 
Q 20.953125 6.0625 26.8125 6.0625 
Q 32.421875 6.0625 36.46875 10.8125 
Q 40.53125 15.578125 40.53125 25.296875 
Q 40.53125 35.640625 36.25 40.859375 
Q 31.984375 46.09375 26.21875 46.09375 
Q 20.515625 46.09375 16.53125 41.234375 
Q 12.546875 36.375 12.546875 26.078125 
z
" id="ArialMT-113"/>
       <path d="M 40.578125 0 
L 40.578125 7.625 
Q 34.515625 -1.171875 24.125 -1.171875 
Q 19.53125 -1.171875 15.546875 0.578125 
Q 11.578125 2.34375 9.640625 5 
Q 7.71875 7.671875 6.9375 11.53125 
Q 6.390625 14.109375 6.390625 19.734375 
L 6.390625 51.859375 
L 15.1875 51.859375 
L 15.1875 23.09375 
Q 15.1875 16.21875 15.71875 13.8125 
Q 16.546875 10.359375 19.234375 8.375 
Q 21.921875 6.390625 25.875 6.390625 
Q 29.828125 6.390625 33.296875 8.421875 
Q 36.765625 10.453125 38.203125 13.9375 
Q 39.65625 17.4375 39.65625 24.078125 
L 39.65625 51.859375 
L 48.4375 51.859375 
L 48.4375 0 
z
" id="ArialMT-117"/>
       <path d="M 6.640625 61.46875 
L 6.640625 71.578125 
L 15.4375 71.578125 
L 15.4375 61.46875 
z
M 6.640625 0 
L 6.640625 51.859375 
L 15.4375 51.859375 
L 15.4375 0 
z
" id="ArialMT-105"/>
       <path d="M 21 0 
L 1.265625 51.859375 
L 10.546875 51.859375 
L 21.6875 20.796875 
Q 23.484375 15.765625 25 10.359375 
Q 26.171875 14.453125 28.265625 20.21875 
L 39.796875 51.859375 
L 48.828125 51.859375 
L 29.203125 0 
z
" id="ArialMT-118"/>
       <path d="M 40.4375 6.390625 
Q 35.546875 2.25 31.03125 0.53125 
Q 26.515625 -1.171875 21.34375 -1.171875 
Q 12.796875 -1.171875 8.203125 3 
Q 3.609375 7.171875 3.609375 13.671875 
Q 3.609375 17.484375 5.34375 20.625 
Q 7.078125 23.78125 9.890625 25.6875 
Q 12.703125 27.59375 16.21875 28.5625 
Q 18.796875 29.25 24.03125 29.890625 
Q 34.671875 31.15625 39.703125 32.90625 
Q 39.75 34.71875 39.75 35.203125 
Q 39.75 40.578125 37.25 42.78125 
Q 33.890625 45.75 27.25 45.75 
Q 21.046875 45.75 18.09375 43.578125 
Q 15.140625 41.40625 13.71875 35.890625 
L 5.125 37.0625 
Q 6.296875 42.578125 8.984375 45.96875 
Q 11.671875 49.359375 16.75 51.1875 
Q 21.828125 53.03125 28.515625 53.03125 
Q 35.15625 53.03125 39.296875 51.46875 
Q 43.453125 49.90625 45.40625 47.53125 
Q 47.359375 45.171875 48.140625 41.546875 
Q 48.578125 39.3125 48.578125 33.453125 
L 48.578125 21.734375 
Q 48.578125 9.46875 49.140625 6.21875 
Q 49.703125 2.984375 51.375 0 
L 42.1875 0 
Q 40.828125 2.734375 40.4375 6.390625 
z
M 39.703125 26.03125 
Q 34.90625 24.078125 25.34375 22.703125 
Q 19.921875 21.921875 17.671875 20.9375 
Q 15.4375 19.96875 14.203125 18.09375 
Q 12.984375 16.21875 12.984375 13.921875 
Q 12.984375 10.40625 15.640625 8.0625 
Q 18.3125 5.71875 23.4375 5.71875 
Q 28.515625 5.71875 32.46875 7.9375 
Q 36.421875 10.15625 38.28125 14.015625 
Q 39.703125 17 39.703125 22.796875 
z
" id="ArialMT-97"/>
       <path d="M 6.390625 0 
L 6.390625 71.578125 
L 15.1875 71.578125 
L 15.1875 0 
z
" id="ArialMT-108"/>
      </defs>
      <use xlink:href="#ArialMT-116"/>
      <use x="27.783203" xlink:href="#ArialMT-111"/>
      <use x="83.398438" xlink:href="#ArialMT-110"/>
      <use x="139.013672" xlink:href="#ArialMT-67"/>
      <use x="211.230469" xlink:href="#ArialMT-79"/>
      <use x="289.013672" xlink:href="#ArialMT-50"/>
      <use x="344.628906" xlink:href="#ArialMT-32"/>
      <use x="372.412109" xlink:href="#ArialMT-101"/>
      <use x="428.027344" xlink:href="#ArialMT-113"/>
      <use x="483.642578" xlink:href="#ArialMT-117"/>
      <use x="539.257812" xlink:href="#ArialMT-105"/>
      <use x="561.474609" xlink:href="#ArialMT-118"/>
      <use x="611.474609" xlink:href="#ArialMT-97"/>
      <use x="667.089844" xlink:href="#ArialMT-108"/>
      <use x="689.306641" xlink:href="#ArialMT-101"/>
      <use x="744.921875" xlink:href="#ArialMT-110"/>
      <use x="800.537109" xlink:href="#ArialMT-116"/>
      <use x="828.320312" xlink:href="#ArialMT-101"/>
      <use x="883.935547" xlink:href="#ArialMT-32"/>
      <use x="911.71875" xlink:href="#ArialMT-97"/>
      <use x="967.333984" xlink:href="#ArialMT-110"/>
      <use x="1022.949219" xlink:href="#ArialMT-117"/>
      <use x="1078.564453" xlink:href="#ArialMT-97"/>
      <use x="1134.179688" xlink:href="#ArialMT-108"/>
     </g>
    </g>
   </g>
   <g id="matplotlib.axis_2">
    <g id="ytick_1">
     <g id="line2d_11">
      <path clip-path="url(#p89cc08b85c)" d="M 224.425 1312.199821 
L 709.2 1312.199821 
" style="fill:none;stroke:#2a3459;stroke-linecap:round;stroke-width:0.8;"/>
     </g>
     <g id="line2d_12"/>
     <g id="text_7">
      <!-- Rancho Nuevo -->
      <g style="fill:#e6e6e6;" transform="translate(88.628125 1319.357634)scale(0.2 -0.2)">
       <defs>
        <path d="M 7.859375 0 
L 7.859375 71.578125 
L 39.59375 71.578125 
Q 49.171875 71.578125 54.140625 69.640625 
Q 59.125 67.71875 62.109375 62.828125 
Q 65.09375 57.953125 65.09375 52.046875 
Q 65.09375 44.4375 60.15625 39.203125 
Q 55.21875 33.984375 44.921875 32.5625 
Q 48.6875 30.765625 50.640625 29 
Q 54.78125 25.203125 58.5 19.484375 
L 70.953125 0 
L 59.03125 0 
L 49.5625 14.890625 
Q 45.40625 21.34375 42.71875 24.75 
Q 40.046875 28.171875 37.921875 29.53125 
Q 35.796875 30.90625 33.59375 31.453125 
Q 31.984375 31.78125 28.328125 31.78125 
L 17.328125 31.78125 
L 17.328125 0 
z
M 17.328125 39.984375 
L 37.703125 39.984375 
Q 44.1875 39.984375 47.84375 41.328125 
Q 51.515625 42.671875 53.421875 45.625 
Q 55.328125 48.578125 55.328125 52.046875 
Q 55.328125 57.125 51.640625 60.390625 
Q 47.953125 63.671875 39.984375 63.671875 
L 17.328125 63.671875 
z
" id="ArialMT-82"/>
        <path d="M 40.4375 19 
L 49.078125 17.875 
Q 47.65625 8.9375 41.8125 3.875 
Q 35.984375 -1.171875 27.484375 -1.171875 
Q 16.84375 -1.171875 10.375 5.78125 
Q 3.90625 12.75 3.90625 25.734375 
Q 3.90625 34.125 6.6875 40.421875 
Q 9.46875 46.734375 15.15625 49.875 
Q 20.84375 53.03125 27.546875 53.03125 
Q 35.984375 53.03125 41.359375 48.75 
Q 46.734375 44.484375 48.25 36.625 
L 39.703125 35.296875 
Q 38.484375 40.53125 35.375 43.15625 
Q 32.28125 45.796875 27.875 45.796875 
Q 21.234375 45.796875 17.078125 41.03125 
Q 12.9375 36.28125 12.9375 25.984375 
Q 12.9375 15.53125 16.9375 10.796875 
Q 20.953125 6.0625 27.390625 6.0625 
Q 32.5625 6.0625 36.03125 9.234375 
Q 39.5 12.40625 40.4375 19 
z
" id="ArialMT-99"/>
        <path d="M 6.59375 0 
L 6.59375 71.578125 
L 15.375 71.578125 
L 15.375 45.90625 
Q 21.53125 53.03125 30.90625 53.03125 
Q 36.671875 53.03125 40.921875 50.75 
Q 45.171875 48.484375 47 44.484375 
Q 48.828125 40.484375 48.828125 32.859375 
L 48.828125 0 
L 40.046875 0 
L 40.046875 32.859375 
Q 40.046875 39.453125 37.1875 42.453125 
Q 34.328125 45.453125 29.109375 45.453125 
Q 25.203125 45.453125 21.75 43.421875 
Q 18.3125 41.40625 16.84375 37.9375 
Q 15.375 34.46875 15.375 28.375 
L 15.375 0 
z
" id="ArialMT-104"/>
        <path d="M 7.625 0 
L 7.625 71.578125 
L 17.328125 71.578125 
L 54.9375 15.375 
L 54.9375 71.578125 
L 64.015625 71.578125 
L 64.015625 0 
L 54.296875 0 
L 16.703125 56.25 
L 16.703125 0 
z
" id="ArialMT-78"/>
       </defs>
       <use xlink:href="#ArialMT-82"/>
       <use x="72.216797" xlink:href="#ArialMT-97"/>
       <use x="127.832031" xlink:href="#ArialMT-110"/>
       <use x="183.447266" xlink:href="#ArialMT-99"/>
       <use x="233.447266" xlink:href="#ArialMT-104"/>
       <use x="289.0625" xlink:href="#ArialMT-111"/>
       <use x="344.677734" xlink:href="#ArialMT-32"/>
       <use x="372.460938" xlink:href="#ArialMT-78"/>
       <use x="444.677734" xlink:href="#ArialMT-117"/>
       <use x="500.292969" xlink:href="#ArialMT-101"/>
       <use x="555.908203" xlink:href="#ArialMT-118"/>
       <use x="605.908203" xlink:href="#ArialMT-111"/>
      </g>
     </g>
    </g>
    <g id="ytick_2">
     <g id="line2d_13">
      <path clip-path="url(#p89cc08b85c)" d="M 224.425 1285.619829 
L 709.2 1285.619829 
" style="fill:none;stroke:#2a3459;stroke-linecap:round;stroke-width:0.8;"/>
     </g>
     <g id="line2d_14"/>
     <g id="text_8">
      <!-- Pino Suarez -->
      <g style="fill:#e6e6e6;" transform="translate(111.975 1292.777642)scale(0.2 -0.2)">
       <defs>
        <path d="M 7.71875 0 
L 7.71875 71.578125 
L 34.71875 71.578125 
Q 41.84375 71.578125 45.609375 70.90625 
Q 50.875 70.015625 54.4375 67.546875 
Q 58.015625 65.09375 60.1875 60.640625 
Q 62.359375 56.203125 62.359375 50.875 
Q 62.359375 41.75 56.546875 35.421875 
Q 50.734375 29.109375 35.546875 29.109375 
L 17.1875 29.109375 
L 17.1875 0 
z
M 17.1875 37.546875 
L 35.6875 37.546875 
Q 44.875 37.546875 48.734375 40.96875 
Q 52.59375 44.390625 52.59375 50.59375 
Q 52.59375 55.078125 50.3125 58.265625 
Q 48.046875 61.46875 44.34375 62.5 
Q 41.9375 63.140625 35.5 63.140625 
L 17.1875 63.140625 
z
" id="ArialMT-80"/>
        <path d="M 4.5 23 
L 13.421875 23.78125 
Q 14.0625 18.40625 16.375 14.96875 
Q 18.703125 11.53125 23.578125 9.40625 
Q 28.46875 7.28125 34.578125 7.28125 
Q 39.984375 7.28125 44.140625 8.890625 
Q 48.296875 10.5 50.3125 13.296875 
Q 52.34375 16.109375 52.34375 19.4375 
Q 52.34375 22.796875 50.390625 25.3125 
Q 48.4375 27.828125 43.953125 29.546875 
Q 41.0625 30.671875 31.203125 33.03125 
Q 21.34375 35.40625 17.390625 37.5 
Q 12.25 40.1875 9.734375 44.15625 
Q 7.234375 48.140625 7.234375 53.078125 
Q 7.234375 58.5 10.296875 63.203125 
Q 13.375 67.921875 19.28125 70.359375 
Q 25.203125 72.796875 32.421875 72.796875 
Q 40.375 72.796875 46.453125 70.234375 
Q 52.546875 67.671875 55.8125 62.6875 
Q 59.078125 57.71875 59.328125 51.421875 
L 50.25 50.734375 
Q 49.515625 57.515625 45.28125 60.984375 
Q 41.0625 64.453125 32.8125 64.453125 
Q 24.21875 64.453125 20.28125 61.296875 
Q 16.359375 58.15625 16.359375 53.71875 
Q 16.359375 49.859375 19.140625 47.359375 
Q 21.875 44.875 33.421875 42.265625 
Q 44.96875 39.65625 49.265625 37.703125 
Q 55.515625 34.8125 58.484375 30.390625 
Q 61.46875 25.984375 61.46875 20.21875 
Q 61.46875 14.5 58.203125 9.4375 
Q 54.9375 4.390625 48.796875 1.578125 
Q 42.671875 -1.21875 35.015625 -1.21875 
Q 25.296875 -1.21875 18.71875 1.609375 
Q 12.15625 4.4375 8.421875 10.125 
Q 4.6875 15.828125 4.5 23 
z
" id="ArialMT-83"/>
        <path d="M 6.5 0 
L 6.5 51.859375 
L 14.40625 51.859375 
L 14.40625 44 
Q 17.4375 49.515625 20 51.265625 
Q 22.5625 53.03125 25.640625 53.03125 
Q 30.078125 53.03125 34.671875 50.203125 
L 31.640625 42.046875 
Q 28.421875 43.953125 25.203125 43.953125 
Q 22.3125 43.953125 20.015625 42.21875 
Q 17.71875 40.484375 16.75 37.40625 
Q 15.28125 32.71875 15.28125 27.15625 
L 15.28125 0 
z
" id="ArialMT-114"/>
        <path d="M 1.953125 0 
L 1.953125 7.125 
L 34.96875 45.015625 
Q 29.34375 44.734375 25.046875 44.734375 
L 3.90625 44.734375 
L 3.90625 51.859375 
L 46.296875 51.859375 
L 46.296875 46.046875 
L 18.21875 13.140625 
L 12.796875 7.125 
Q 18.703125 7.5625 23.875 7.5625 
L 47.859375 7.5625 
L 47.859375 0 
z
" id="ArialMT-122"/>
       </defs>
       <use xlink:href="#ArialMT-80"/>
       <use x="66.699219" xlink:href="#ArialMT-105"/>
       <use x="88.916016" xlink:href="#ArialMT-110"/>
       <use x="144.53125" xlink:href="#ArialMT-111"/>
       <use x="200.146484" xlink:href="#ArialMT-32"/>
       <use x="227.929688" xlink:href="#ArialMT-83"/>
       <use x="294.628906" xlink:href="#ArialMT-117"/>
       <use x="350.244141" xlink:href="#ArialMT-97"/>
       <use x="405.859375" xlink:href="#ArialMT-114"/>
       <use x="439.160156" xlink:href="#ArialMT-101"/>
       <use x="494.775391" xlink:href="#ArialMT-122"/>
      </g>
     </g>
    </g>
    <g id="ytick_3">
     <g id="line2d_15">
      <path clip-path="url(#p89cc08b85c)" d="M 224.425 1259.039837 
L 709.2 1259.039837 
" style="fill:none;stroke:#2a3459;stroke-linecap:round;stroke-width:0.8;"/>
     </g>
     <g id="line2d_16"/>
     <g id="text_9">
      <!-- Tuzania -->
      <g style="fill:#e6e6e6;" transform="translate(150.528125 1266.19765)scale(0.2 -0.2)">
       <defs>
        <path d="M 25.921875 0 
L 25.921875 63.140625 
L 2.34375 63.140625 
L 2.34375 71.578125 
L 59.078125 71.578125 
L 59.078125 63.140625 
L 35.40625 63.140625 
L 35.40625 0 
z
" id="ArialMT-84"/>
       </defs>
       <use xlink:href="#ArialMT-84"/>
       <use x="57.333984" xlink:href="#ArialMT-117"/>
       <use x="112.949219" xlink:href="#ArialMT-122"/>
       <use x="162.949219" xlink:href="#ArialMT-97"/>
       <use x="218.564453" xlink:href="#ArialMT-110"/>
       <use x="274.179688" xlink:href="#ArialMT-105"/>
       <use x="296.396484" xlink:href="#ArialMT-97"/>
      </g>
     </g>
    </g>
    <g id="ytick_4">
     <g id="line2d_17">
      <path clip-path="url(#p89cc08b85c)" d="M 224.425 1232.459845 
L 709.2 1232.459845 
" style="fill:none;stroke:#2a3459;stroke-linecap:round;stroke-width:0.8;"/>
     </g>
     <g id="line2d_18"/>
     <g id="text_10">
      <!-- Tepeyac -->
      <g style="fill:#e6e6e6;" transform="translate(146.446875 1239.617658)scale(0.2 -0.2)">
       <defs>
        <path d="M 6.59375 -19.875 
L 6.59375 51.859375 
L 14.59375 51.859375 
L 14.59375 45.125 
Q 17.4375 49.078125 21 51.046875 
Q 24.5625 53.03125 29.640625 53.03125 
Q 36.28125 53.03125 41.359375 49.609375 
Q 46.4375 46.1875 49.015625 39.953125 
Q 51.609375 33.734375 51.609375 26.3125 
Q 51.609375 18.359375 48.75 11.984375 
Q 45.90625 5.609375 40.453125 2.21875 
Q 35.015625 -1.171875 29 -1.171875 
Q 24.609375 -1.171875 21.109375 0.6875 
Q 17.625 2.546875 15.375 5.375 
L 15.375 -19.875 
z
M 14.546875 25.640625 
Q 14.546875 15.625 18.59375 10.84375 
Q 22.65625 6.0625 28.421875 6.0625 
Q 34.28125 6.0625 38.453125 11.015625 
Q 42.625 15.96875 42.625 26.375 
Q 42.625 36.28125 38.546875 41.203125 
Q 34.46875 46.140625 28.8125 46.140625 
Q 23.1875 46.140625 18.859375 40.890625 
Q 14.546875 35.640625 14.546875 25.640625 
z
" id="ArialMT-112"/>
        <path d="M 6.203125 -19.96875 
L 5.21875 -11.71875 
Q 8.109375 -12.5 10.25 -12.5 
Q 13.1875 -12.5 14.9375 -11.515625 
Q 16.703125 -10.546875 17.828125 -8.796875 
Q 18.65625 -7.46875 20.515625 -2.25 
Q 20.75 -1.515625 21.296875 -0.09375 
L 1.609375 51.859375 
L 11.078125 51.859375 
L 21.875 21.828125 
Q 23.96875 16.109375 25.640625 9.8125 
Q 27.15625 15.875 29.25 21.625 
L 40.328125 51.859375 
L 49.125 51.859375 
L 29.390625 -0.875 
Q 26.21875 -9.421875 24.46875 -12.640625 
Q 22.125 -17 19.09375 -19.015625 
Q 16.0625 -21.046875 11.859375 -21.046875 
Q 9.328125 -21.046875 6.203125 -19.96875 
z
" id="ArialMT-121"/>
       </defs>
       <use xlink:href="#ArialMT-84"/>
       <use x="49.958984" xlink:href="#ArialMT-101"/>
       <use x="105.574219" xlink:href="#ArialMT-112"/>
       <use x="161.189453" xlink:href="#ArialMT-101"/>
       <use x="216.804688" xlink:href="#ArialMT-121"/>
       <use x="266.804688" xlink:href="#ArialMT-97"/>
       <use x="322.419922" xlink:href="#ArialMT-99"/>
      </g>
     </g>
    </g>
    <g id="ytick_5">
     <g id="line2d_19">
      <path clip-path="url(#p89cc08b85c)" d="M 224.425 1205.879853 
L 709.2 1205.879853 
" style="fill:none;stroke:#2a3459;stroke-linecap:round;stroke-width:0.8;"/>
     </g>
     <g id="line2d_20"/>
     <g id="text_11">
      <!-- Saltillo -->
      <g style="fill:#e6e6e6;" transform="translate(162.009375 1213.037666)scale(0.2 -0.2)">
       <use xlink:href="#ArialMT-83"/>
       <use x="66.699219" xlink:href="#ArialMT-97"/>
       <use x="122.314453" xlink:href="#ArialMT-108"/>
       <use x="144.53125" xlink:href="#ArialMT-116"/>
       <use x="172.314453" xlink:href="#ArialMT-105"/>
       <use x="194.53125" xlink:href="#ArialMT-108"/>
       <use x="216.748047" xlink:href="#ArialMT-108"/>
       <use x="238.964844" xlink:href="#ArialMT-111"/>
      </g>
     </g>
    </g>
    <g id="ytick_6">
     <g id="line2d_21">
      <path clip-path="url(#p89cc08b85c)" d="M 224.425 1179.299861 
L 709.2 1179.299861 
" style="fill:none;stroke:#2a3459;stroke-linecap:round;stroke-width:0.8;"/>
     </g>
     <g id="line2d_22"/>
     <g id="text_12">
      <!-- Sta. Margarita -->
      <g style="fill:#e6e6e6;" transform="translate(95.328125 1186.579549)scale(0.2 -0.2)">
       <defs>
        <path d="M 9.078125 0 
L 9.078125 10.015625 
L 19.09375 10.015625 
L 19.09375 0 
z
" id="ArialMT-46"/>
        <path d="M 7.421875 0 
L 7.421875 71.578125 
L 21.6875 71.578125 
L 38.625 20.90625 
Q 40.96875 13.8125 42.046875 10.296875 
Q 43.265625 14.203125 45.84375 21.78125 
L 62.984375 71.578125 
L 75.734375 71.578125 
L 75.734375 0 
L 66.609375 0 
L 66.609375 59.90625 
L 45.796875 0 
L 37.25 0 
L 16.546875 60.9375 
L 16.546875 0 
z
" id="ArialMT-77"/>
        <path d="M 4.984375 -4.296875 
L 13.53125 -5.5625 
Q 14.0625 -9.515625 16.5 -11.328125 
Q 19.78125 -13.765625 25.4375 -13.765625 
Q 31.546875 -13.765625 34.859375 -11.328125 
Q 38.1875 -8.890625 39.359375 -4.5 
Q 40.046875 -1.8125 39.984375 6.78125 
Q 34.234375 0 25.640625 0 
Q 14.9375 0 9.078125 7.71875 
Q 3.21875 15.4375 3.21875 26.21875 
Q 3.21875 33.640625 5.90625 39.90625 
Q 8.59375 46.1875 13.6875 49.609375 
Q 18.796875 53.03125 25.6875 53.03125 
Q 34.859375 53.03125 40.828125 45.609375 
L 40.828125 51.859375 
L 48.921875 51.859375 
L 48.921875 7.03125 
Q 48.921875 -5.078125 46.453125 -10.125 
Q 44 -15.1875 38.640625 -18.109375 
Q 33.296875 -21.046875 25.484375 -21.046875 
Q 16.21875 -21.046875 10.5 -16.875 
Q 4.78125 -12.703125 4.984375 -4.296875 
z
M 12.25 26.859375 
Q 12.25 16.65625 16.296875 11.96875 
Q 20.359375 7.28125 26.46875 7.28125 
Q 32.515625 7.28125 36.609375 11.9375 
Q 40.71875 16.609375 40.71875 26.5625 
Q 40.71875 36.078125 36.5 40.90625 
Q 32.28125 45.75 26.3125 45.75 
Q 20.453125 45.75 16.34375 40.984375 
Q 12.25 36.234375 12.25 26.859375 
z
" id="ArialMT-103"/>
       </defs>
       <use xlink:href="#ArialMT-83"/>
       <use x="66.699219" xlink:href="#ArialMT-116"/>
       <use x="94.482422" xlink:href="#ArialMT-97"/>
       <use x="150.097656" xlink:href="#ArialMT-46"/>
       <use x="177.880859" xlink:href="#ArialMT-32"/>
       <use x="205.664062" xlink:href="#ArialMT-77"/>
       <use x="288.964844" xlink:href="#ArialMT-97"/>
       <use x="344.580078" xlink:href="#ArialMT-114"/>
       <use x="377.880859" xlink:href="#ArialMT-103"/>
       <use x="433.496094" xlink:href="#ArialMT-97"/>
       <use x="489.111328" xlink:href="#ArialMT-114"/>
       <use x="522.412109" xlink:href="#ArialMT-105"/>
       <use x="544.628906" xlink:href="#ArialMT-116"/>
       <use x="572.412109" xlink:href="#ArialMT-97"/>
      </g>
     </g>
    </g>
    <g id="ytick_7">
     <g id="line2d_23">
      <path clip-path="url(#p89cc08b85c)" d="M 224.425 1152.719869 
L 709.2 1152.719869 
" style="fill:none;stroke:#2a3459;stroke-linecap:round;stroke-width:0.8;"/>
     </g>
     <g id="line2d_24"/>
     <g id="text_13">
      <!-- Balcones del Sol -->
      <g style="fill:#e6e6e6;" transform="translate(71.946875 1159.877681)scale(0.2 -0.2)">
       <defs>
        <path d="M 7.328125 0 
L 7.328125 71.578125 
L 34.1875 71.578125 
Q 42.390625 71.578125 47.34375 69.40625 
Q 52.296875 67.234375 55.09375 62.71875 
Q 57.90625 58.203125 57.90625 53.265625 
Q 57.90625 48.6875 55.421875 44.625 
Q 52.9375 40.578125 47.90625 38.09375 
Q 54.390625 36.1875 57.875 31.59375 
Q 61.375 27 61.375 20.75 
Q 61.375 15.71875 59.25 11.390625 
Q 57.125 7.078125 54 4.734375 
Q 50.875 2.390625 46.15625 1.1875 
Q 41.453125 0 34.625 0 
z
M 16.796875 41.5 
L 32.28125 41.5 
Q 38.578125 41.5 41.3125 42.328125 
Q 44.921875 43.40625 46.75 45.890625 
Q 48.578125 48.390625 48.578125 52.15625 
Q 48.578125 55.71875 46.875 58.421875 
Q 45.171875 61.140625 41.984375 62.140625 
Q 38.8125 63.140625 31.109375 63.140625 
L 16.796875 63.140625 
z
M 16.796875 8.453125 
L 34.625 8.453125 
Q 39.203125 8.453125 41.0625 8.796875 
Q 44.34375 9.375 46.53125 10.734375 
Q 48.734375 12.109375 50.140625 14.71875 
Q 51.5625 17.328125 51.5625 20.75 
Q 51.5625 24.75 49.515625 27.703125 
Q 47.46875 30.671875 43.828125 31.859375 
Q 40.1875 33.0625 33.34375 33.0625 
L 16.796875 33.0625 
z
" id="ArialMT-66"/>
        <path d="M 3.078125 15.484375 
L 11.765625 16.84375 
Q 12.5 11.625 15.84375 8.84375 
Q 19.1875 6.0625 25.203125 6.0625 
Q 31.25 6.0625 34.171875 8.515625 
Q 37.109375 10.984375 37.109375 14.3125 
Q 37.109375 17.28125 34.515625 19 
Q 32.71875 20.171875 25.53125 21.96875 
Q 15.875 24.421875 12.140625 26.203125 
Q 8.40625 27.984375 6.46875 31.125 
Q 4.546875 34.28125 4.546875 38.09375 
Q 4.546875 41.546875 6.125 44.5 
Q 7.71875 47.46875 10.453125 49.421875 
Q 12.5 50.921875 16.03125 51.96875 
Q 19.578125 53.03125 23.640625 53.03125 
Q 29.734375 53.03125 34.34375 51.265625 
Q 38.96875 49.515625 41.15625 46.5 
Q 43.359375 43.5 44.1875 38.484375 
L 35.59375 37.3125 
Q 35.015625 41.3125 32.203125 43.546875 
Q 29.390625 45.796875 24.265625 45.796875 
Q 18.21875 45.796875 15.625 43.796875 
Q 13.03125 41.796875 13.03125 39.109375 
Q 13.03125 37.40625 14.109375 36.03125 
Q 15.1875 34.625 17.484375 33.6875 
Q 18.796875 33.203125 25.25 31.453125 
Q 34.578125 28.953125 38.25 27.359375 
Q 41.9375 25.78125 44.03125 22.75 
Q 46.140625 19.734375 46.140625 15.234375 
Q 46.140625 10.84375 43.578125 6.953125 
Q 41.015625 3.078125 36.171875 0.953125 
Q 31.34375 -1.171875 25.25 -1.171875 
Q 15.140625 -1.171875 9.84375 3.03125 
Q 4.546875 7.234375 3.078125 15.484375 
z
" id="ArialMT-115"/>
        <path d="M 40.234375 0 
L 40.234375 6.546875 
Q 35.296875 -1.171875 25.734375 -1.171875 
Q 19.53125 -1.171875 14.328125 2.25 
Q 9.125 5.671875 6.265625 11.796875 
Q 3.421875 17.921875 3.421875 25.875 
Q 3.421875 33.640625 6 39.96875 
Q 8.59375 46.296875 13.765625 49.65625 
Q 18.953125 53.03125 25.34375 53.03125 
Q 30.03125 53.03125 33.6875 51.046875 
Q 37.359375 49.078125 39.65625 45.90625 
L 39.65625 71.578125 
L 48.390625 71.578125 
L 48.390625 0 
z
M 12.453125 25.875 
Q 12.453125 15.921875 16.640625 10.984375 
Q 20.84375 6.0625 26.5625 6.0625 
Q 32.328125 6.0625 36.34375 10.765625 
Q 40.375 15.484375 40.375 25.140625 
Q 40.375 35.796875 36.265625 40.765625 
Q 32.171875 45.75 26.171875 45.75 
Q 20.3125 45.75 16.375 40.96875 
Q 12.453125 36.1875 12.453125 25.875 
z
" id="ArialMT-100"/>
       </defs>
       <use xlink:href="#ArialMT-66"/>
       <use x="66.699219" xlink:href="#ArialMT-97"/>
       <use x="122.314453" xlink:href="#ArialMT-108"/>
       <use x="144.53125" xlink:href="#ArialMT-99"/>
       <use x="194.53125" xlink:href="#ArialMT-111"/>
       <use x="250.146484" xlink:href="#ArialMT-110"/>
       <use x="305.761719" xlink:href="#ArialMT-101"/>
       <use x="361.376953" xlink:href="#ArialMT-115"/>
       <use x="411.376953" xlink:href="#ArialMT-32"/>
       <use x="439.160156" xlink:href="#ArialMT-100"/>
       <use x="494.775391" xlink:href="#ArialMT-101"/>
       <use x="550.390625" xlink:href="#ArialMT-108"/>
       <use x="572.607422" xlink:href="#ArialMT-32"/>
       <use x="600.390625" xlink:href="#ArialMT-83"/>
       <use x="667.089844" xlink:href="#ArialMT-111"/>
       <use x="722.705078" xlink:href="#ArialMT-108"/>
      </g>
     </g>
    </g>
    <g id="ytick_8">
     <g id="line2d_25">
      <path clip-path="url(#p89cc08b85c)" d="M 224.425 1126.139877 
L 709.2 1126.139877 
" style="fill:none;stroke:#2a3459;stroke-linecap:round;stroke-width:0.8;"/>
     </g>
     <g id="line2d_26"/>
     <g id="text_14">
      <!-- Victor Hugo -->
      <g style="fill:#e6e6e6;" transform="translate(116.7875 1133.297689)scale(0.2 -0.2)">
       <defs>
        <path d="M 28.171875 0 
L 0.4375 71.578125 
L 10.6875 71.578125 
L 29.296875 19.578125 
Q 31.546875 13.328125 33.0625 7.859375 
Q 34.71875 13.71875 36.921875 19.578125 
L 56.25 71.578125 
L 65.921875 71.578125 
L 37.890625 0 
z
" id="ArialMT-86"/>
        <path d="M 8.015625 0 
L 8.015625 71.578125 
L 17.484375 71.578125 
L 17.484375 42.1875 
L 54.6875 42.1875 
L 54.6875 71.578125 
L 64.15625 71.578125 
L 64.15625 0 
L 54.6875 0 
L 54.6875 33.734375 
L 17.484375 33.734375 
L 17.484375 0 
z
" id="ArialMT-72"/>
       </defs>
       <use xlink:href="#ArialMT-86"/>
       <use x="64.949219" xlink:href="#ArialMT-105"/>
       <use x="87.166016" xlink:href="#ArialMT-99"/>
       <use x="137.166016" xlink:href="#ArialMT-116"/>
       <use x="164.949219" xlink:href="#ArialMT-111"/>
       <use x="220.564453" xlink:href="#ArialMT-114"/>
       <use x="253.865234" xlink:href="#ArialMT-32"/>
       <use x="281.648438" xlink:href="#ArialMT-72"/>
       <use x="353.865234" xlink:href="#ArialMT-117"/>
       <use x="409.480469" xlink:href="#ArialMT-103"/>
       <use x="465.095703" xlink:href="#ArialMT-111"/>
      </g>
     </g>
    </g>
    <g id="ytick_9">
     <g id="line2d_27">
      <path clip-path="url(#p89cc08b85c)" d="M 224.425 1099.559885 
L 709.2 1099.559885 
" style="fill:none;stroke:#2a3459;stroke-linecap:round;stroke-width:0.8;"/>
     </g>
     <g id="line2d_28"/>
     <g id="text_15">
      <!-- San Juan de Dios -->
      <g style="fill:#e6e6e6;" transform="translate(63.053125 1106.717697)scale(0.2 -0.2)">
       <defs>
        <path d="M 2.875 20.3125 
L 11.421875 21.484375 
Q 11.765625 13.28125 14.5 10.25 
Q 17.234375 7.234375 22.078125 7.234375 
Q 25.640625 7.234375 28.21875 8.859375 
Q 30.8125 10.5 31.78125 13.296875 
Q 32.765625 16.109375 32.765625 22.265625 
L 32.765625 71.578125 
L 42.234375 71.578125 
L 42.234375 22.796875 
Q 42.234375 13.8125 40.0625 8.875 
Q 37.890625 3.953125 33.171875 1.359375 
Q 28.46875 -1.21875 22.125 -1.21875 
Q 12.703125 -1.21875 7.6875 4.203125 
Q 2.6875 9.625 2.875 20.3125 
z
" id="ArialMT-74"/>
        <path d="M 7.71875 0 
L 7.71875 71.578125 
L 32.375 71.578125 
Q 40.71875 71.578125 45.125 70.5625 
Q 51.265625 69.140625 55.609375 65.4375 
Q 61.28125 60.640625 64.078125 53.1875 
Q 66.890625 45.75 66.890625 36.1875 
Q 66.890625 28.03125 64.984375 21.734375 
Q 63.09375 15.4375 60.109375 11.296875 
Q 57.125 7.171875 53.578125 4.796875 
Q 50.046875 2.4375 45.046875 1.21875 
Q 40.046875 0 33.546875 0 
z
M 17.1875 8.453125 
L 32.46875 8.453125 
Q 39.546875 8.453125 43.578125 9.765625 
Q 47.609375 11.078125 50 13.484375 
Q 53.375 16.84375 55.25 22.53125 
Q 57.125 28.21875 57.125 36.328125 
Q 57.125 47.5625 53.4375 53.59375 
Q 49.75 59.625 44.484375 61.671875 
Q 40.671875 63.140625 32.234375 63.140625 
L 17.1875 63.140625 
z
" id="ArialMT-68"/>
       </defs>
       <use xlink:href="#ArialMT-83"/>
       <use x="66.699219" xlink:href="#ArialMT-97"/>
       <use x="122.314453" xlink:href="#ArialMT-110"/>
       <use x="177.929688" xlink:href="#ArialMT-32"/>
       <use x="205.712891" xlink:href="#ArialMT-74"/>
       <use x="255.712891" xlink:href="#ArialMT-117"/>
       <use x="311.328125" xlink:href="#ArialMT-97"/>
       <use x="366.943359" xlink:href="#ArialMT-110"/>
       <use x="422.558594" xlink:href="#ArialMT-32"/>
       <use x="450.341797" xlink:href="#ArialMT-100"/>
       <use x="505.957031" xlink:href="#ArialMT-101"/>
       <use x="561.572266" xlink:href="#ArialMT-32"/>
       <use x="589.355469" xlink:href="#ArialMT-68"/>
       <use x="661.572266" xlink:href="#ArialMT-105"/>
       <use x="683.789062" xlink:href="#ArialMT-111"/>
       <use x="739.404297" xlink:href="#ArialMT-115"/>
      </g>
     </g>
    </g>
    <g id="ytick_10">
     <g id="line2d_29">
      <path clip-path="url(#p89cc08b85c)" d="M 224.425 1072.979893 
L 709.2 1072.979893 
" style="fill:none;stroke:#2a3459;stroke-linecap:round;stroke-width:0.8;"/>
     </g>
     <g id="line2d_30"/>
     <g id="text_16">
      <!-- CUCEA -->
      <g style="fill:#e6e6e6;" transform="translate(150.9125 1080.137705)scale(0.2 -0.2)">
       <defs>
        <path d="M 54.6875 71.578125 
L 64.15625 71.578125 
L 64.15625 30.21875 
Q 64.15625 19.4375 61.71875 13.078125 
Q 59.28125 6.734375 52.90625 2.75 
Q 46.53125 -1.21875 36.1875 -1.21875 
Q 26.125 -1.21875 19.71875 2.25 
Q 13.328125 5.71875 10.59375 12.28125 
Q 7.859375 18.84375 7.859375 30.21875 
L 7.859375 71.578125 
L 17.328125 71.578125 
L 17.328125 30.28125 
Q 17.328125 20.953125 19.0625 16.53125 
Q 20.796875 12.109375 25.015625 9.71875 
Q 29.25 7.328125 35.359375 7.328125 
Q 45.796875 7.328125 50.234375 12.0625 
Q 54.6875 16.796875 54.6875 30.28125 
z
" id="ArialMT-85"/>
        <path d="M 7.90625 0 
L 7.90625 71.578125 
L 59.671875 71.578125 
L 59.671875 63.140625 
L 17.390625 63.140625 
L 17.390625 41.21875 
L 56.984375 41.21875 
L 56.984375 32.8125 
L 17.390625 32.8125 
L 17.390625 8.453125 
L 61.328125 8.453125 
L 61.328125 0 
z
" id="ArialMT-69"/>
        <path d="M -0.140625 0 
L 27.34375 71.578125 
L 37.546875 71.578125 
L 66.84375 0 
L 56.0625 0 
L 47.703125 21.6875 
L 17.78125 21.6875 
L 9.90625 0 
z
M 20.515625 29.390625 
L 44.78125 29.390625 
L 37.3125 49.21875 
Q 33.890625 58.25 32.234375 64.0625 
Q 30.859375 57.171875 28.375 50.390625 
z
" id="ArialMT-65"/>
       </defs>
       <use xlink:href="#ArialMT-67"/>
       <use x="72.216797" xlink:href="#ArialMT-85"/>
       <use x="144.433594" xlink:href="#ArialMT-67"/>
       <use x="216.650391" xlink:href="#ArialMT-69"/>
       <use x="283.349609" xlink:href="#ArialMT-65"/>
      </g>
     </g>
    </g>
    <g id="ytick_11">
     <g id="line2d_31">
      <path clip-path="url(#p89cc08b85c)" d="M 224.425 1046.399901 
L 709.2 1046.399901 
" style="fill:none;stroke:#2a3459;stroke-linecap:round;stroke-width:0.8;"/>
     </g>
     <g id="line2d_32"/>
     <g id="text_17">
      <!-- Constituyentes -->
      <g style="fill:#e6e6e6;" transform="translate(88.6375 1053.679588)scale(0.2 -0.2)">
       <use xlink:href="#ArialMT-67"/>
       <use x="72.216797" xlink:href="#ArialMT-111"/>
       <use x="127.832031" xlink:href="#ArialMT-110"/>
       <use x="183.447266" xlink:href="#ArialMT-115"/>
       <use x="233.447266" xlink:href="#ArialMT-116"/>
       <use x="261.230469" xlink:href="#ArialMT-105"/>
       <use x="283.447266" xlink:href="#ArialMT-116"/>
       <use x="311.230469" xlink:href="#ArialMT-117"/>
       <use x="366.845703" xlink:href="#ArialMT-121"/>
       <use x="416.845703" xlink:href="#ArialMT-101"/>
       <use x="472.460938" xlink:href="#ArialMT-110"/>
       <use x="528.076172" xlink:href="#ArialMT-116"/>
       <use x="555.859375" xlink:href="#ArialMT-101"/>
       <use x="611.474609" xlink:href="#ArialMT-115"/>
      </g>
     </g>
    </g>
    <g id="ytick_12">
     <g id="line2d_33">
      <path clip-path="url(#p89cc08b85c)" d="M 224.425 1019.819909 
L 709.2 1019.819909 
" style="fill:none;stroke:#2a3459;stroke-linecap:round;stroke-width:0.8;"/>
     </g>
     <g id="line2d_34"/>
     <g id="text_18">
      <!-- Tutelar -->
      <g style="fill:#e6e6e6;" transform="translate(159.434375 1026.977721)scale(0.2 -0.2)">
       <use xlink:href="#ArialMT-84"/>
       <use x="57.333984" xlink:href="#ArialMT-117"/>
       <use x="112.949219" xlink:href="#ArialMT-116"/>
       <use x="140.732422" xlink:href="#ArialMT-101"/>
       <use x="196.347656" xlink:href="#ArialMT-108"/>
       <use x="218.564453" xlink:href="#ArialMT-97"/>
       <use x="274.179688" xlink:href="#ArialMT-114"/>
      </g>
     </g>
    </g>
    <g id="ytick_13">
     <g id="line2d_35">
      <path clip-path="url(#p89cc08b85c)" d="M 224.425 993.239917 
L 709.2 993.239917 
" style="fill:none;stroke:#2a3459;stroke-linecap:round;stroke-width:0.8;"/>
     </g>
     <g id="line2d_36"/>
     <g id="text_19">
      <!-- L3 Belenes -->
      <g style="fill:#e6e6e6;" transform="translate(120.853125 1000.397729)scale(0.2 -0.2)">
       <defs>
        <path d="M 7.328125 0 
L 7.328125 71.578125 
L 16.796875 71.578125 
L 16.796875 8.453125 
L 52.046875 8.453125 
L 52.046875 0 
z
" id="ArialMT-76"/>
        <path d="M 4.203125 18.890625 
L 12.984375 20.0625 
Q 14.5 12.59375 18.140625 9.296875 
Q 21.78125 6 27 6 
Q 33.203125 6 37.46875 10.296875 
Q 41.75 14.59375 41.75 20.953125 
Q 41.75 27 37.796875 30.921875 
Q 33.84375 34.859375 27.734375 34.859375 
Q 25.25 34.859375 21.53125 33.890625 
L 22.515625 41.609375 
Q 23.390625 41.5 23.921875 41.5 
Q 29.546875 41.5 34.03125 44.421875 
Q 38.53125 47.359375 38.53125 53.46875 
Q 38.53125 58.296875 35.25 61.46875 
Q 31.984375 64.65625 26.8125 64.65625 
Q 21.6875 64.65625 18.265625 61.421875 
Q 14.84375 58.203125 13.875 51.765625 
L 5.078125 53.328125 
Q 6.6875 62.15625 12.390625 67.015625 
Q 18.109375 71.875 26.609375 71.875 
Q 32.46875 71.875 37.390625 69.359375 
Q 42.328125 66.84375 44.9375 62.5 
Q 47.5625 58.15625 47.5625 53.265625 
Q 47.5625 48.640625 45.0625 44.828125 
Q 42.578125 41.015625 37.703125 38.765625 
Q 44.046875 37.3125 47.5625 32.6875 
Q 51.078125 28.078125 51.078125 21.140625 
Q 51.078125 11.765625 44.234375 5.25 
Q 37.40625 -1.265625 26.953125 -1.265625 
Q 17.53125 -1.265625 11.296875 4.34375 
Q 5.078125 9.96875 4.203125 18.890625 
z
" id="ArialMT-51"/>
       </defs>
       <use xlink:href="#ArialMT-76"/>
       <use x="55.615234" xlink:href="#ArialMT-51"/>
       <use x="111.230469" xlink:href="#ArialMT-32"/>
       <use x="139.013672" xlink:href="#ArialMT-66"/>
       <use x="205.712891" xlink:href="#ArialMT-101"/>
       <use x="261.328125" xlink:href="#ArialMT-108"/>
       <use x="283.544922" xlink:href="#ArialMT-101"/>
       <use x="339.160156" xlink:href="#ArialMT-110"/>
       <use x="394.775391" xlink:href="#ArialMT-101"/>
       <use x="450.390625" xlink:href="#ArialMT-115"/>
      </g>
     </g>
    </g>
    <g id="ytick_14">
     <g id="line2d_37">
      <path clip-path="url(#p89cc08b85c)" d="M 224.425 966.659925 
L 709.2 966.659925 
" style="fill:none;stroke:#2a3459;stroke-linecap:round;stroke-width:0.8;"/>
     </g>
     <g id="line2d_38"/>
     <g id="text_20">
      <!-- Federalismo -->
      <g style="fill:#e6e6e6;" transform="translate(110.89375 973.817737)scale(0.2 -0.2)">
       <defs>
        <path d="M 8.203125 0 
L 8.203125 71.578125 
L 56.5 71.578125 
L 56.5 63.140625 
L 17.671875 63.140625 
L 17.671875 40.96875 
L 51.265625 40.96875 
L 51.265625 32.515625 
L 17.671875 32.515625 
L 17.671875 0 
z
" id="ArialMT-70"/>
        <path d="M 6.59375 0 
L 6.59375 51.859375 
L 14.453125 51.859375 
L 14.453125 44.578125 
Q 16.890625 48.390625 20.9375 50.703125 
Q 25 53.03125 30.171875 53.03125 
Q 35.9375 53.03125 39.625 50.640625 
Q 43.3125 48.25 44.828125 43.953125 
Q 50.984375 53.03125 60.84375 53.03125 
Q 68.5625 53.03125 72.703125 48.75 
Q 76.859375 44.484375 76.859375 35.59375 
L 76.859375 0 
L 68.109375 0 
L 68.109375 32.671875 
Q 68.109375 37.9375 67.25 40.25 
Q 66.40625 42.578125 64.15625 43.984375 
Q 61.921875 45.40625 58.890625 45.40625 
Q 53.421875 45.40625 49.796875 41.765625 
Q 46.1875 38.140625 46.1875 30.125 
L 46.1875 0 
L 37.40625 0 
L 37.40625 33.6875 
Q 37.40625 39.546875 35.25 42.46875 
Q 33.109375 45.40625 28.21875 45.40625 
Q 24.515625 45.40625 21.359375 43.453125 
Q 18.21875 41.5 16.796875 37.734375 
Q 15.375 33.984375 15.375 26.90625 
L 15.375 0 
z
" id="ArialMT-109"/>
       </defs>
       <use xlink:href="#ArialMT-70"/>
       <use x="61.083984" xlink:href="#ArialMT-101"/>
       <use x="116.699219" xlink:href="#ArialMT-100"/>
       <use x="172.314453" xlink:href="#ArialMT-101"/>
       <use x="227.929688" xlink:href="#ArialMT-114"/>
       <use x="261.230469" xlink:href="#ArialMT-97"/>
       <use x="316.845703" xlink:href="#ArialMT-108"/>
       <use x="339.0625" xlink:href="#ArialMT-105"/>
       <use x="361.279297" xlink:href="#ArialMT-115"/>
       <use x="411.279297" xlink:href="#ArialMT-109"/>
       <use x="494.580078" xlink:href="#ArialMT-111"/>
      </g>
     </g>
    </g>
    <g id="ytick_15">
     <g id="line2d_39">
      <path clip-path="url(#p89cc08b85c)" d="M 224.425 940.079933 
L 709.2 940.079933 
" style="fill:none;stroke:#2a3459;stroke-linecap:round;stroke-width:0.8;"/>
     </g>
     <g id="line2d_40"/>
     <g id="text_21">
      <!-- Valdepeñas -->
      <g style="fill:#e6e6e6;" transform="translate(116.7625 947.237745)scale(0.2 -0.2)">
       <defs>
        <path d="M 6.59375 0 
L 6.59375 51.859375 
L 14.5 51.859375 
L 14.5 44.484375 
Q 20.21875 53.03125 31 53.03125 
Q 35.6875 53.03125 39.625 51.34375 
Q 43.5625 49.65625 45.515625 46.921875 
Q 47.46875 44.1875 48.25 40.4375 
Q 48.734375 37.984375 48.734375 31.890625 
L 48.734375 0 
L 39.9375 0 
L 39.9375 31.546875 
Q 39.9375 36.921875 38.90625 39.578125 
Q 37.890625 42.234375 35.28125 43.8125 
Q 32.671875 45.40625 29.15625 45.40625 
Q 23.53125 45.40625 19.453125 41.84375 
Q 15.375 38.28125 15.375 28.328125 
L 15.375 0 
z
M 12.84375 59.515625 
Q 12.796875 64.59375 15.625 67.625 
Q 18.40625 70.65625 22.75 70.65625 
Q 25.78125 70.65625 31 68.015625 
Q 33.890625 66.546875 35.59375 66.546875 
Q 37.15625 66.546875 37.984375 67.40625 
Q 38.8125 68.265625 39.15625 70.796875 
L 45.515625 70.796875 
Q 45.359375 65.234375 42.703125 62.453125 
Q 40.046875 59.671875 35.9375 59.671875 
Q 32.859375 59.671875 27.828125 62.40625 
Q 24.5625 64.15625 23.046875 64.15625 
Q 21.390625 64.15625 20.359375 62.984375 
Q 19.28125 61.8125 19.34375 59.515625 
z
" id="ArialMT-241"/>
       </defs>
       <use xlink:href="#ArialMT-86"/>
       <use x="59.324219" xlink:href="#ArialMT-97"/>
       <use x="114.939453" xlink:href="#ArialMT-108"/>
       <use x="137.15625" xlink:href="#ArialMT-100"/>
       <use x="192.771484" xlink:href="#ArialMT-101"/>
       <use x="248.386719" xlink:href="#ArialMT-112"/>
       <use x="304.001953" xlink:href="#ArialMT-101"/>
       <use x="359.617188" xlink:href="#ArialMT-241"/>
       <use x="415.232422" xlink:href="#ArialMT-97"/>
       <use x="470.847656" xlink:href="#ArialMT-115"/>
      </g>
     </g>
    </g>
    <g id="ytick_16">
     <g id="line2d_41">
      <path clip-path="url(#p89cc08b85c)" d="M 224.425 913.49994 
L 709.2 913.49994 
" style="fill:none;stroke:#2a3459;stroke-linecap:round;stroke-width:0.8;"/>
     </g>
     <g id="line2d_42"/>
     <g id="text_22">
      <!-- Mariano Otero -->
      <g style="fill:#e6e6e6;" transform="translate(93.103125 920.657753)scale(0.2 -0.2)">
       <use xlink:href="#ArialMT-77"/>
       <use x="83.300781" xlink:href="#ArialMT-97"/>
       <use x="138.916016" xlink:href="#ArialMT-114"/>
       <use x="172.216797" xlink:href="#ArialMT-105"/>
       <use x="194.433594" xlink:href="#ArialMT-97"/>
       <use x="250.048828" xlink:href="#ArialMT-110"/>
       <use x="305.664062" xlink:href="#ArialMT-111"/>
       <use x="361.279297" xlink:href="#ArialMT-32"/>
       <use x="389.0625" xlink:href="#ArialMT-79"/>
       <use x="466.845703" xlink:href="#ArialMT-116"/>
       <use x="494.628906" xlink:href="#ArialMT-101"/>
       <use x="550.244141" xlink:href="#ArialMT-114"/>
       <use x="583.544922" xlink:href="#ArialMT-111"/>
      </g>
     </g>
    </g>
    <g id="ytick_17">
     <g id="line2d_43">
      <path clip-path="url(#p89cc08b85c)" d="M 224.425 886.919948 
L 709.2 886.919948 
" style="fill:none;stroke:#2a3459;stroke-linecap:round;stroke-width:0.8;"/>
     </g>
     <g id="line2d_44"/>
     <g id="text_23">
      <!-- Cantera Morada -->
      <g style="fill:#e6e6e6;" transform="translate(76.415625 894.077761)scale(0.2 -0.2)">
       <use xlink:href="#ArialMT-67"/>
       <use x="72.216797" xlink:href="#ArialMT-97"/>
       <use x="127.832031" xlink:href="#ArialMT-110"/>
       <use x="183.447266" xlink:href="#ArialMT-116"/>
       <use x="211.230469" xlink:href="#ArialMT-101"/>
       <use x="266.845703" xlink:href="#ArialMT-114"/>
       <use x="300.146484" xlink:href="#ArialMT-97"/>
       <use x="355.761719" xlink:href="#ArialMT-32"/>
       <use x="383.544922" xlink:href="#ArialMT-77"/>
       <use x="466.845703" xlink:href="#ArialMT-111"/>
       <use x="522.460938" xlink:href="#ArialMT-114"/>
       <use x="555.761719" xlink:href="#ArialMT-97"/>
       <use x="611.376953" xlink:href="#ArialMT-100"/>
       <use x="666.992188" xlink:href="#ArialMT-97"/>
      </g>
     </g>
    </g>
    <g id="ytick_18">
     <g id="line2d_45">
      <path clip-path="url(#p89cc08b85c)" d="M 224.425 860.339956 
L 709.2 860.339956 
" style="fill:none;stroke:#2a3459;stroke-linecap:round;stroke-width:0.8;"/>
     </g>
     <g id="line2d_46"/>
     <g id="text_24">
      <!-- de la Cantera -->
      <g style="fill:#e6e6e6;" transform="translate(100.85625 867.497769)scale(0.2 -0.2)">
       <use xlink:href="#ArialMT-100"/>
       <use x="55.615234" xlink:href="#ArialMT-101"/>
       <use x="111.230469" xlink:href="#ArialMT-32"/>
       <use x="139.013672" xlink:href="#ArialMT-108"/>
       <use x="161.230469" xlink:href="#ArialMT-97"/>
       <use x="216.845703" xlink:href="#ArialMT-32"/>
       <use x="244.628906" xlink:href="#ArialMT-67"/>
       <use x="316.845703" xlink:href="#ArialMT-97"/>
       <use x="372.460938" xlink:href="#ArialMT-110"/>
       <use x="428.076172" xlink:href="#ArialMT-116"/>
       <use x="455.859375" xlink:href="#ArialMT-101"/>
       <use x="511.474609" xlink:href="#ArialMT-114"/>
       <use x="544.775391" xlink:href="#ArialMT-97"/>
      </g>
     </g>
    </g>
    <g id="ytick_19">
     <g id="line2d_47">
      <path clip-path="url(#p89cc08b85c)" d="M 224.425 833.759964 
L 709.2 833.759964 
" style="fill:none;stroke:#2a3459;stroke-linecap:round;stroke-width:0.8;"/>
     </g>
     <g id="line2d_48"/>
     <g id="text_25">
      <!-- Miramar -->
      <g style="fill:#e6e6e6;" transform="translate(147.6 840.917777)scale(0.2 -0.2)">
       <use xlink:href="#ArialMT-77"/>
       <use x="83.300781" xlink:href="#ArialMT-105"/>
       <use x="105.517578" xlink:href="#ArialMT-114"/>
       <use x="138.818359" xlink:href="#ArialMT-97"/>
       <use x="194.433594" xlink:href="#ArialMT-109"/>
       <use x="277.734375" xlink:href="#ArialMT-97"/>
       <use x="333.349609" xlink:href="#ArialMT-114"/>
      </g>
     </g>
    </g>
    <g id="ytick_20">
     <g id="line2d_49">
      <path clip-path="url(#p89cc08b85c)" d="M 224.425 807.179972 
L 709.2 807.179972 
" style="fill:none;stroke:#2a3459;stroke-linecap:round;stroke-width:0.8;"/>
     </g>
     <g id="line2d_50"/>
     <g id="text_26">
      <!-- Calzada Independencia -->
      <g style="fill:#e6e6e6;" transform="translate(10.775 814.45966)scale(0.2 -0.2)">
       <defs>
        <path d="M 9.328125 0 
L 9.328125 71.578125 
L 18.796875 71.578125 
L 18.796875 0 
z
" id="ArialMT-73"/>
       </defs>
       <use xlink:href="#ArialMT-67"/>
       <use x="72.216797" xlink:href="#ArialMT-97"/>
       <use x="127.832031" xlink:href="#ArialMT-108"/>
       <use x="150.048828" xlink:href="#ArialMT-122"/>
       <use x="200.048828" xlink:href="#ArialMT-97"/>
       <use x="255.664062" xlink:href="#ArialMT-100"/>
       <use x="311.279297" xlink:href="#ArialMT-97"/>
       <use x="366.894531" xlink:href="#ArialMT-32"/>
       <use x="394.677734" xlink:href="#ArialMT-73"/>
       <use x="422.460938" xlink:href="#ArialMT-110"/>
       <use x="478.076172" xlink:href="#ArialMT-100"/>
       <use x="533.691406" xlink:href="#ArialMT-101"/>
       <use x="589.306641" xlink:href="#ArialMT-112"/>
       <use x="644.921875" xlink:href="#ArialMT-101"/>
       <use x="700.537109" xlink:href="#ArialMT-110"/>
       <use x="756.152344" xlink:href="#ArialMT-100"/>
       <use x="811.767578" xlink:href="#ArialMT-101"/>
       <use x="867.382812" xlink:href="#ArialMT-110"/>
       <use x="922.998047" xlink:href="#ArialMT-99"/>
       <use x="972.998047" xlink:href="#ArialMT-105"/>
       <use x="995.214844" xlink:href="#ArialMT-97"/>
      </g>
     </g>
    </g>
    <g id="ytick_21">
     <g id="line2d_51">
      <path clip-path="url(#p89cc08b85c)" d="M 224.425 780.59998 
L 709.2 780.59998 
" style="fill:none;stroke:#2a3459;stroke-linecap:round;stroke-width:0.8;"/>
     </g>
     <g id="line2d_52"/>
     <g id="text_27">
      <!-- Tabachines -->
      <g style="fill:#e6e6e6;" transform="translate(119.759375 787.757793)scale(0.2 -0.2)">
       <defs>
        <path d="M 14.703125 0 
L 6.546875 0 
L 6.546875 71.578125 
L 15.328125 71.578125 
L 15.328125 46.046875 
Q 20.90625 53.03125 29.546875 53.03125 
Q 34.328125 53.03125 38.59375 51.09375 
Q 42.875 49.171875 45.625 45.671875 
Q 48.390625 42.1875 49.953125 37.25 
Q 51.515625 32.328125 51.515625 26.703125 
Q 51.515625 13.375 44.921875 6.09375 
Q 38.328125 -1.171875 29.109375 -1.171875 
Q 19.921875 -1.171875 14.703125 6.5 
z
M 14.59375 26.3125 
Q 14.59375 17 17.140625 12.84375 
Q 21.296875 6.0625 28.375 6.0625 
Q 34.125 6.0625 38.328125 11.0625 
Q 42.53125 16.0625 42.53125 25.984375 
Q 42.53125 36.140625 38.5 40.96875 
Q 34.46875 45.796875 28.765625 45.796875 
Q 23 45.796875 18.796875 40.796875 
Q 14.59375 35.796875 14.59375 26.3125 
z
" id="ArialMT-98"/>
       </defs>
       <use xlink:href="#ArialMT-84"/>
       <use x="49.958984" xlink:href="#ArialMT-97"/>
       <use x="105.574219" xlink:href="#ArialMT-98"/>
       <use x="161.189453" xlink:href="#ArialMT-97"/>
       <use x="216.804688" xlink:href="#ArialMT-99"/>
       <use x="266.804688" xlink:href="#ArialMT-104"/>
       <use x="322.419922" xlink:href="#ArialMT-105"/>
       <use x="344.636719" xlink:href="#ArialMT-110"/>
       <use x="400.251953" xlink:href="#ArialMT-101"/>
       <use x="455.867188" xlink:href="#ArialMT-115"/>
      </g>
     </g>
    </g>
    <g id="ytick_22">
     <g id="line2d_53">
      <path clip-path="url(#p89cc08b85c)" d="M 224.425 754.019988 
L 709.2 754.019988 
" style="fill:none;stroke:#2a3459;stroke-linecap:round;stroke-width:0.8;"/>
     </g>
     <g id="line2d_54"/>
     <g id="text_28">
      <!-- Lopez Mateos -->
      <g style="fill:#e6e6e6;" transform="translate(95.3 761.177801)scale(0.2 -0.2)">
       <use xlink:href="#ArialMT-76"/>
       <use x="55.615234" xlink:href="#ArialMT-111"/>
       <use x="111.230469" xlink:href="#ArialMT-112"/>
       <use x="166.845703" xlink:href="#ArialMT-101"/>
       <use x="222.460938" xlink:href="#ArialMT-122"/>
       <use x="272.460938" xlink:href="#ArialMT-32"/>
       <use x="300.244141" xlink:href="#ArialMT-77"/>
       <use x="383.544922" xlink:href="#ArialMT-97"/>
       <use x="439.160156" xlink:href="#ArialMT-116"/>
       <use x="466.943359" xlink:href="#ArialMT-101"/>
       <use x="522.558594" xlink:href="#ArialMT-111"/>
       <use x="578.173828" xlink:href="#ArialMT-115"/>
      </g>
     </g>
    </g>
    <g id="ytick_23">
     <g id="line2d_55">
      <path clip-path="url(#p89cc08b85c)" d="M 224.425 727.439996 
L 709.2 727.439996 
" style="fill:none;stroke:#2a3459;stroke-linecap:round;stroke-width:0.8;"/>
     </g>
     <g id="line2d_56"/>
     <g id="text_29">
      <!-- Piramides -->
      <g style="fill:#e6e6e6;" transform="translate(132.0125 734.597809)scale(0.2 -0.2)">
       <use xlink:href="#ArialMT-80"/>
       <use x="66.699219" xlink:href="#ArialMT-105"/>
       <use x="88.916016" xlink:href="#ArialMT-114"/>
       <use x="122.216797" xlink:href="#ArialMT-97"/>
       <use x="177.832031" xlink:href="#ArialMT-109"/>
       <use x="261.132812" xlink:href="#ArialMT-105"/>
       <use x="283.349609" xlink:href="#ArialMT-100"/>
       <use x="338.964844" xlink:href="#ArialMT-101"/>
       <use x="394.580078" xlink:href="#ArialMT-115"/>
      </g>
     </g>
    </g>
    <g id="ytick_24">
     <g id="line2d_57">
      <path clip-path="url(#p89cc08b85c)" d="M 224.425 700.860004 
L 709.2 700.860004 
" style="fill:none;stroke:#2a3459;stroke-linecap:round;stroke-width:0.8;"/>
     </g>
     <g id="line2d_58"/>
     <g id="text_30">
      <!-- Juan de la Barrera -->
      <g style="fill:#e6e6e6;" transform="translate(56.396875 708.017816)scale(0.2 -0.2)">
       <use xlink:href="#ArialMT-74"/>
       <use x="50" xlink:href="#ArialMT-117"/>
       <use x="105.615234" xlink:href="#ArialMT-97"/>
       <use x="161.230469" xlink:href="#ArialMT-110"/>
       <use x="216.845703" xlink:href="#ArialMT-32"/>
       <use x="244.628906" xlink:href="#ArialMT-100"/>
       <use x="300.244141" xlink:href="#ArialMT-101"/>
       <use x="355.859375" xlink:href="#ArialMT-32"/>
       <use x="383.642578" xlink:href="#ArialMT-108"/>
       <use x="405.859375" xlink:href="#ArialMT-97"/>
       <use x="461.474609" xlink:href="#ArialMT-32"/>
       <use x="489.257812" xlink:href="#ArialMT-66"/>
       <use x="555.957031" xlink:href="#ArialMT-97"/>
       <use x="611.572266" xlink:href="#ArialMT-114"/>
       <use x="644.873047" xlink:href="#ArialMT-114"/>
       <use x="678.173828" xlink:href="#ArialMT-101"/>
       <use x="733.789062" xlink:href="#ArialMT-114"/>
       <use x="767.089844" xlink:href="#ArialMT-97"/>
      </g>
     </g>
    </g>
    <g id="ytick_25">
     <g id="line2d_59">
      <path clip-path="url(#p89cc08b85c)" d="M 224.425 674.280012 
L 709.2 674.280012 
" style="fill:none;stroke:#2a3459;stroke-linecap:round;stroke-width:0.8;"/>
     </g>
     <g id="line2d_60"/>
     <g id="text_31">
      <!-- Agricola -->
      <g style="fill:#e6e6e6;" transform="translate(148.671875 681.437824)scale(0.2 -0.2)">
       <use xlink:href="#ArialMT-65"/>
       <use x="66.699219" xlink:href="#ArialMT-103"/>
       <use x="122.314453" xlink:href="#ArialMT-114"/>
       <use x="155.615234" xlink:href="#ArialMT-105"/>
       <use x="177.832031" xlink:href="#ArialMT-99"/>
       <use x="227.832031" xlink:href="#ArialMT-111"/>
       <use x="283.447266" xlink:href="#ArialMT-108"/>
       <use x="305.664062" xlink:href="#ArialMT-97"/>
      </g>
     </g>
    </g>
    <g id="ytick_26">
     <g id="line2d_61">
      <path clip-path="url(#p89cc08b85c)" d="M 224.425 647.70002 
L 709.2 647.70002 
" style="fill:none;stroke:#2a3459;stroke-linecap:round;stroke-width:0.8;"/>
     </g>
     <g id="line2d_62"/>
     <g id="text_32">
      <!-- Belisario -->
      <g style="fill:#e6e6e6;" transform="translate(144.228125 654.857832)scale(0.2 -0.2)">
       <use xlink:href="#ArialMT-66"/>
       <use x="66.699219" xlink:href="#ArialMT-101"/>
       <use x="122.314453" xlink:href="#ArialMT-108"/>
       <use x="144.53125" xlink:href="#ArialMT-105"/>
       <use x="166.748047" xlink:href="#ArialMT-115"/>
       <use x="216.748047" xlink:href="#ArialMT-97"/>
       <use x="272.363281" xlink:href="#ArialMT-114"/>
       <use x="305.664062" xlink:href="#ArialMT-105"/>
       <use x="327.880859" xlink:href="#ArialMT-111"/>
      </g>
     </g>
    </g>
    <g id="ytick_27">
     <g id="line2d_63">
      <path clip-path="url(#p89cc08b85c)" d="M 224.425 621.120028 
L 709.2 621.120028 
" style="fill:none;stroke:#2a3459;stroke-linecap:round;stroke-width:0.8;"/>
     </g>
     <g id="line2d_64"/>
     <g id="text_33">
      <!-- ITESO -->
      <g style="fill:#e6e6e6;" transform="translate(160.915625 628.27784)scale(0.2 -0.2)">
       <use xlink:href="#ArialMT-73"/>
       <use x="27.783203" xlink:href="#ArialMT-84"/>
       <use x="88.867188" xlink:href="#ArialMT-69"/>
       <use x="155.566406" xlink:href="#ArialMT-83"/>
       <use x="222.265625" xlink:href="#ArialMT-79"/>
      </g>
     </g>
    </g>
    <g id="ytick_28">
     <g id="line2d_65">
      <path clip-path="url(#p89cc08b85c)" d="M 224.425 594.540036 
L 709.2 594.540036 
" style="fill:none;stroke:#2a3459;stroke-linecap:round;stroke-width:0.8;"/>
     </g>
     <g id="line2d_66"/>
     <g id="text_34">
      <!-- Magnolias -->
      <g style="fill:#e6e6e6;" transform="translate(129.76875 601.697848)scale(0.2 -0.2)">
       <use xlink:href="#ArialMT-77"/>
       <use x="83.300781" xlink:href="#ArialMT-97"/>
       <use x="138.916016" xlink:href="#ArialMT-103"/>
       <use x="194.53125" xlink:href="#ArialMT-110"/>
       <use x="250.146484" xlink:href="#ArialMT-111"/>
       <use x="305.761719" xlink:href="#ArialMT-108"/>
       <use x="327.978516" xlink:href="#ArialMT-105"/>
       <use x="350.195312" xlink:href="#ArialMT-97"/>
       <use x="405.810547" xlink:href="#ArialMT-115"/>
      </g>
     </g>
    </g>
    <g id="ytick_29">
     <g id="line2d_67">
      <path clip-path="url(#p89cc08b85c)" d="M 224.425 567.960044 
L 709.2 567.960044 
" style="fill:none;stroke:#2a3459;stroke-linecap:round;stroke-width:0.8;"/>
     </g>
     <g id="line2d_68"/>
     <g id="text_35">
      <!-- Acueducto -->
      <g style="fill:#e6e6e6;" transform="translate(126.41875 575.117856)scale(0.2 -0.2)">
       <use xlink:href="#ArialMT-65"/>
       <use x="66.699219" xlink:href="#ArialMT-99"/>
       <use x="116.699219" xlink:href="#ArialMT-117"/>
       <use x="172.314453" xlink:href="#ArialMT-101"/>
       <use x="227.929688" xlink:href="#ArialMT-100"/>
       <use x="283.544922" xlink:href="#ArialMT-117"/>
       <use x="339.160156" xlink:href="#ArialMT-99"/>
       <use x="389.160156" xlink:href="#ArialMT-116"/>
       <use x="416.943359" xlink:href="#ArialMT-111"/>
      </g>
     </g>
    </g>
    <g id="ytick_30">
     <g id="line2d_69">
      <path clip-path="url(#p89cc08b85c)" d="M 224.425 541.380052 
L 709.2 541.380052 
" style="fill:none;stroke:#2a3459;stroke-linecap:round;stroke-width:0.8;"/>
     </g>
     <g id="line2d_70"/>
     <g id="text_36">
      <!-- Guadalupe Inn -->
      <g style="fill:#e6e6e6;" transform="translate(89.715625 548.659739)scale(0.2 -0.2)">
       <defs>
        <path d="M 41.21875 28.078125 
L 41.21875 36.46875 
L 71.53125 36.53125 
L 71.53125 9.96875 
Q 64.546875 4.390625 57.125 1.578125 
Q 49.703125 -1.21875 41.890625 -1.21875 
Q 31.34375 -1.21875 22.71875 3.296875 
Q 14.109375 7.8125 9.71875 16.359375 
Q 5.328125 24.90625 5.328125 35.453125 
Q 5.328125 45.90625 9.6875 54.953125 
Q 14.0625 64.015625 22.265625 68.40625 
Q 30.46875 72.796875 41.15625 72.796875 
Q 48.921875 72.796875 55.1875 70.28125 
Q 61.46875 67.78125 65.03125 63.28125 
Q 68.609375 58.796875 70.453125 51.5625 
L 61.921875 49.21875 
Q 60.296875 54.6875 57.90625 57.8125 
Q 55.515625 60.9375 51.0625 62.8125 
Q 46.625 64.703125 41.21875 64.703125 
Q 34.71875 64.703125 29.984375 62.71875 
Q 25.25 60.75 22.34375 57.515625 
Q 19.4375 54.296875 17.828125 50.4375 
Q 15.09375 43.796875 15.09375 36.03125 
Q 15.09375 26.46875 18.390625 20.015625 
Q 21.6875 13.578125 27.984375 10.453125 
Q 34.28125 7.328125 41.359375 7.328125 
Q 47.515625 7.328125 53.375 9.6875 
Q 59.234375 12.0625 62.25 14.75 
L 62.25 28.078125 
z
" id="ArialMT-71"/>
       </defs>
       <use xlink:href="#ArialMT-71"/>
       <use x="77.783203" xlink:href="#ArialMT-117"/>
       <use x="133.398438" xlink:href="#ArialMT-97"/>
       <use x="189.013672" xlink:href="#ArialMT-100"/>
       <use x="244.628906" xlink:href="#ArialMT-97"/>
       <use x="300.244141" xlink:href="#ArialMT-108"/>
       <use x="322.460938" xlink:href="#ArialMT-117"/>
       <use x="378.076172" xlink:href="#ArialMT-112"/>
       <use x="433.691406" xlink:href="#ArialMT-101"/>
       <use x="489.306641" xlink:href="#ArialMT-32"/>
       <use x="517.089844" xlink:href="#ArialMT-73"/>
       <use x="544.873047" xlink:href="#ArialMT-110"/>
       <use x="600.488281" xlink:href="#ArialMT-110"/>
      </g>
     </g>
    </g>
    <g id="ytick_31">
     <g id="line2d_71">
      <path clip-path="url(#p89cc08b85c)" d="M 224.425 514.80006 
L 709.2 514.80006 
" style="fill:none;stroke:#2a3459;stroke-linecap:round;stroke-width:0.8;"/>
     </g>
     <g id="line2d_72"/>
     <g id="text_37">
      <!-- La Llave -->
      <g style="fill:#e6e6e6;" transform="translate(145.315625 521.957872)scale(0.2 -0.2)">
       <use xlink:href="#ArialMT-76"/>
       <use x="55.615234" xlink:href="#ArialMT-97"/>
       <use x="111.230469" xlink:href="#ArialMT-32"/>
       <use x="139.013672" xlink:href="#ArialMT-76"/>
       <use x="194.628906" xlink:href="#ArialMT-108"/>
       <use x="216.845703" xlink:href="#ArialMT-97"/>
       <use x="272.460938" xlink:href="#ArialMT-118"/>
       <use x="322.460938" xlink:href="#ArialMT-101"/>
      </g>
     </g>
    </g>
    <g id="ytick_32">
     <g id="line2d_73">
      <path clip-path="url(#p89cc08b85c)" d="M 224.425 488.220067 
L 709.2 488.220067 
" style="fill:none;stroke:#2a3459;stroke-linecap:round;stroke-width:0.8;"/>
     </g>
     <g id="line2d_74"/>
     <g id="text_38">
      <!-- Planetario -->
      <g style="fill:#e6e6e6;" transform="translate(130.871875 495.37788)scale(0.2 -0.2)">
       <use xlink:href="#ArialMT-80"/>
       <use x="66.699219" xlink:href="#ArialMT-108"/>
       <use x="88.916016" xlink:href="#ArialMT-97"/>
       <use x="144.53125" xlink:href="#ArialMT-110"/>
       <use x="200.146484" xlink:href="#ArialMT-101"/>
       <use x="255.761719" xlink:href="#ArialMT-116"/>
       <use x="283.544922" xlink:href="#ArialMT-97"/>
       <use x="339.160156" xlink:href="#ArialMT-114"/>
       <use x="372.460938" xlink:href="#ArialMT-105"/>
       <use x="394.677734" xlink:href="#ArialMT-111"/>
      </g>
     </g>
    </g>
    <g id="ytick_33">
     <g id="line2d_75">
      <path clip-path="url(#p89cc08b85c)" d="M 224.425 461.640075 
L 709.2 461.640075 
" style="fill:none;stroke:#2a3459;stroke-linecap:round;stroke-width:0.8;"/>
     </g>
     <g id="line2d_76"/>
     <g id="text_39">
      <!-- San Sebastianito -->
      <g style="fill:#e6e6e6;" transform="translate(69.7125 468.797888)scale(0.2 -0.2)">
       <use xlink:href="#ArialMT-83"/>
       <use x="66.699219" xlink:href="#ArialMT-97"/>
       <use x="122.314453" xlink:href="#ArialMT-110"/>
       <use x="177.929688" xlink:href="#ArialMT-32"/>
       <use x="205.712891" xlink:href="#ArialMT-83"/>
       <use x="272.412109" xlink:href="#ArialMT-101"/>
       <use x="328.027344" xlink:href="#ArialMT-98"/>
       <use x="383.642578" xlink:href="#ArialMT-97"/>
       <use x="439.257812" xlink:href="#ArialMT-115"/>
       <use x="489.257812" xlink:href="#ArialMT-116"/>
       <use x="517.041016" xlink:href="#ArialMT-105"/>
       <use x="539.257812" xlink:href="#ArialMT-97"/>
       <use x="594.873047" xlink:href="#ArialMT-110"/>
       <use x="650.488281" xlink:href="#ArialMT-105"/>
       <use x="672.705078" xlink:href="#ArialMT-116"/>
       <use x="700.488281" xlink:href="#ArialMT-111"/>
      </g>
     </g>
    </g>
    <g id="ytick_34">
     <g id="line2d_77">
      <path clip-path="url(#p89cc08b85c)" d="M 224.425 435.060083 
L 709.2 435.060083 
" style="fill:none;stroke:#2a3459;stroke-linecap:round;stroke-width:0.8;"/>
     </g>
     <g id="line2d_78"/>
     <g id="text_40">
      <!-- Colon -->
      <g style="fill:#e6e6e6;" transform="translate(168.671875 442.217896)scale(0.2 -0.2)">
       <use xlink:href="#ArialMT-67"/>
       <use x="72.216797" xlink:href="#ArialMT-111"/>
       <use x="127.832031" xlink:href="#ArialMT-108"/>
       <use x="150.048828" xlink:href="#ArialMT-111"/>
       <use x="205.664062" xlink:href="#ArialMT-110"/>
      </g>
     </g>
    </g>
    <g id="ytick_35">
     <g id="line2d_79">
      <path clip-path="url(#p89cc08b85c)" d="M 224.425 408.480091 
L 709.2 408.480091 
" style="fill:none;stroke:#2a3459;stroke-linecap:round;stroke-width:0.8;"/>
     </g>
     <g id="line2d_80"/>
     <g id="text_41">
      <!-- Terminal Sur -->
      <g style="fill:#e6e6e6;" transform="translate(108.684375 415.637904)scale(0.2 -0.2)">
       <use xlink:href="#ArialMT-84"/>
       <use x="49.958984" xlink:href="#ArialMT-101"/>
       <use x="105.574219" xlink:href="#ArialMT-114"/>
       <use x="138.875" xlink:href="#ArialMT-109"/>
       <use x="222.175781" xlink:href="#ArialMT-105"/>
       <use x="244.392578" xlink:href="#ArialMT-110"/>
       <use x="300.007812" xlink:href="#ArialMT-97"/>
       <use x="355.623047" xlink:href="#ArialMT-108"/>
       <use x="377.839844" xlink:href="#ArialMT-32"/>
       <use x="405.623047" xlink:href="#ArialMT-83"/>
       <use x="472.322266" xlink:href="#ArialMT-117"/>
       <use x="527.9375" xlink:href="#ArialMT-114"/>
      </g>
     </g>
    </g>
    <g id="ytick_36">
     <g id="line2d_81">
      <path clip-path="url(#p89cc08b85c)" d="M 224.425 381.900099 
L 709.2 381.900099 
" style="fill:none;stroke:#2a3459;stroke-linecap:round;stroke-width:0.8;"/>
     </g>
     <g id="line2d_82"/>
     <g id="text_42">
      <!-- 8 de Julio -->
      <g style="fill:#e6e6e6;" transform="translate(135.315625 389.057912)scale(0.2 -0.2)">
       <use xlink:href="#ArialMT-56"/>
       <use x="55.615234" xlink:href="#ArialMT-32"/>
       <use x="83.398438" xlink:href="#ArialMT-100"/>
       <use x="139.013672" xlink:href="#ArialMT-101"/>
       <use x="194.628906" xlink:href="#ArialMT-32"/>
       <use x="222.412109" xlink:href="#ArialMT-74"/>
       <use x="272.412109" xlink:href="#ArialMT-117"/>
       <use x="328.027344" xlink:href="#ArialMT-108"/>
       <use x="350.244141" xlink:href="#ArialMT-105"/>
       <use x="372.460938" xlink:href="#ArialMT-111"/>
      </g>
     </g>
    </g>
    <g id="ytick_37">
     <g id="line2d_83">
      <path clip-path="url(#p89cc08b85c)" d="M 224.425 355.320107 
L 709.2 355.320107 
" style="fill:none;stroke:#2a3459;stroke-linecap:round;stroke-width:0.8;"/>
     </g>
     <g id="line2d_84"/>
     <g id="text_43">
      <!-- UVM -->
      <g style="fill:#e6e6e6;" transform="translate(176.48125 362.47792)scale(0.2 -0.2)">
       <use xlink:href="#ArialMT-85"/>
       <use x="72.216797" xlink:href="#ArialMT-86"/>
       <use x="138.916016" xlink:href="#ArialMT-77"/>
      </g>
     </g>
    </g>
    <g id="ytick_38">
     <g id="line2d_85">
      <path clip-path="url(#p89cc08b85c)" d="M 224.425 328.740115 
L 709.2 328.740115 
" style="fill:none;stroke:#2a3459;stroke-linecap:round;stroke-width:0.8;"/>
     </g>
     <g id="line2d_86"/>
     <g id="text_44">
      <!-- Sonora -->
      <g style="fill:#e6e6e6;" transform="translate(156.4375 335.897928)scale(0.2 -0.2)">
       <use xlink:href="#ArialMT-83"/>
       <use x="66.699219" xlink:href="#ArialMT-111"/>
       <use x="122.314453" xlink:href="#ArialMT-110"/>
       <use x="177.929688" xlink:href="#ArialMT-111"/>
       <use x="233.544922" xlink:href="#ArialMT-114"/>
       <use x="266.845703" xlink:href="#ArialMT-97"/>
      </g>
     </g>
    </g>
    <g id="ytick_39">
     <g id="line2d_87">
      <path clip-path="url(#p89cc08b85c)" d="M 224.425 302.160123 
L 709.2 302.160123 
" style="fill:none;stroke:#2a3459;stroke-linecap:round;stroke-width:0.8;"/>
     </g>
     <g id="line2d_88"/>
     <g id="text_45">
      <!-- Adolf Horn -->
      <g style="fill:#e6e6e6;" transform="translate(126.4375 309.317936)scale(0.2 -0.2)">
       <defs>
        <path d="M 8.6875 0 
L 8.6875 45.015625 
L 0.921875 45.015625 
L 0.921875 51.859375 
L 8.6875 51.859375 
L 8.6875 57.375 
Q 8.6875 62.59375 9.625 65.140625 
Q 10.890625 68.5625 14.078125 70.671875 
Q 17.28125 72.796875 23.046875 72.796875 
Q 26.765625 72.796875 31.25 71.921875 
L 29.9375 64.265625 
Q 27.203125 64.75 24.75 64.75 
Q 20.75 64.75 19.09375 63.03125 
Q 17.4375 61.328125 17.4375 56.640625 
L 17.4375 51.859375 
L 27.546875 51.859375 
L 27.546875 45.015625 
L 17.4375 45.015625 
L 17.4375 0 
z
" id="ArialMT-102"/>
       </defs>
       <use xlink:href="#ArialMT-65"/>
       <use x="66.699219" xlink:href="#ArialMT-100"/>
       <use x="122.314453" xlink:href="#ArialMT-111"/>
       <use x="177.929688" xlink:href="#ArialMT-108"/>
       <use x="200.146484" xlink:href="#ArialMT-102"/>
       <use x="227.929688" xlink:href="#ArialMT-32"/>
       <use x="255.712891" xlink:href="#ArialMT-72"/>
       <use x="327.929688" xlink:href="#ArialMT-111"/>
       <use x="383.544922" xlink:href="#ArialMT-114"/>
       <use x="416.845703" xlink:href="#ArialMT-110"/>
      </g>
     </g>
    </g>
    <g id="ytick_40">
     <g id="line2d_89">
      <path clip-path="url(#p89cc08b85c)" d="M 224.425 275.580131 
L 709.2 275.580131 
" style="fill:none;stroke:#2a3459;stroke-linecap:round;stroke-width:0.8;"/>
     </g>
     <g id="line2d_90"/>
     <g id="text_46">
      <!-- Vallarta -->
      <g style="fill:#e6e6e6;" transform="translate(154.590625 282.737944)scale(0.2 -0.2)">
       <use xlink:href="#ArialMT-86"/>
       <use x="59.324219" xlink:href="#ArialMT-97"/>
       <use x="114.939453" xlink:href="#ArialMT-108"/>
       <use x="137.15625" xlink:href="#ArialMT-108"/>
       <use x="159.373047" xlink:href="#ArialMT-97"/>
       <use x="214.988281" xlink:href="#ArialMT-114"/>
       <use x="248.289062" xlink:href="#ArialMT-116"/>
       <use x="276.072266" xlink:href="#ArialMT-97"/>
      </g>
     </g>
    </g>
    <g id="ytick_41">
     <g id="line2d_91">
      <path clip-path="url(#p89cc08b85c)" d="M 224.425 249.000139 
L 709.2 249.000139 
" style="fill:none;stroke:#2a3459;stroke-linecap:round;stroke-width:0.8;"/>
     </g>
     <g id="line2d_92"/>
     <g id="text_47">
      <!-- Ocampo -->
      <g style="fill:#e6e6e6;" transform="translate(145.34375 256.286076)scale(0.2 -0.2)">
       <use xlink:href="#ArialMT-79"/>
       <use x="77.783203" xlink:href="#ArialMT-99"/>
       <use x="127.783203" xlink:href="#ArialMT-97"/>
       <use x="183.398438" xlink:href="#ArialMT-109"/>
       <use x="266.699219" xlink:href="#ArialMT-112"/>
       <use x="322.314453" xlink:href="#ArialMT-111"/>
      </g>
     </g>
    </g>
    <g id="ytick_42">
     <g id="line2d_93">
      <path clip-path="url(#p89cc08b85c)" d="M 224.425 222.420147 
L 709.2 222.420147 
" style="fill:none;stroke:#2a3459;stroke-linecap:round;stroke-width:0.8;"/>
     </g>
     <g id="line2d_94"/>
     <g id="text_48">
      <!-- Ciudad Judicial -->
      <g style="fill:#e6e6e6;" transform="translate(85.296875 229.577959)scale(0.2 -0.2)">
       <use xlink:href="#ArialMT-67"/>
       <use x="72.216797" xlink:href="#ArialMT-105"/>
       <use x="94.433594" xlink:href="#ArialMT-117"/>
       <use x="150.048828" xlink:href="#ArialMT-100"/>
       <use x="205.664062" xlink:href="#ArialMT-97"/>
       <use x="261.279297" xlink:href="#ArialMT-100"/>
       <use x="316.894531" xlink:href="#ArialMT-32"/>
       <use x="344.677734" xlink:href="#ArialMT-74"/>
       <use x="394.677734" xlink:href="#ArialMT-117"/>
       <use x="450.292969" xlink:href="#ArialMT-100"/>
       <use x="505.908203" xlink:href="#ArialMT-105"/>
       <use x="528.125" xlink:href="#ArialMT-99"/>
       <use x="578.125" xlink:href="#ArialMT-105"/>
       <use x="600.341797" xlink:href="#ArialMT-97"/>
       <use x="655.957031" xlink:href="#ArialMT-108"/>
      </g>
     </g>
    </g>
    <g id="ytick_43">
     <g id="line2d_95">
      <path clip-path="url(#p89cc08b85c)" d="M 224.425 195.840155 
L 709.2 195.840155 
" style="fill:none;stroke:#2a3459;stroke-linecap:round;stroke-width:0.8;"/>
     </g>
     <g id="line2d_96"/>
     <g id="text_49">
      <!-- Concentro -->
      <g style="fill:#e6e6e6;" transform="translate(128.65625 202.997967)scale(0.2 -0.2)">
       <use xlink:href="#ArialMT-67"/>
       <use x="72.216797" xlink:href="#ArialMT-111"/>
       <use x="127.832031" xlink:href="#ArialMT-110"/>
       <use x="183.447266" xlink:href="#ArialMT-99"/>
       <use x="233.447266" xlink:href="#ArialMT-101"/>
       <use x="289.0625" xlink:href="#ArialMT-110"/>
       <use x="344.677734" xlink:href="#ArialMT-116"/>
       <use x="372.460938" xlink:href="#ArialMT-114"/>
       <use x="405.761719" xlink:href="#ArialMT-111"/>
      </g>
     </g>
    </g>
    <g id="ytick_44">
     <g id="line2d_97">
      <path clip-path="url(#p89cc08b85c)" d="M 224.425 169.260163 
L 709.2 169.260163 
" style="fill:none;stroke:#2a3459;stroke-linecap:round;stroke-width:0.8;"/>
     </g>
     <g id="line2d_98"/>
     <g id="text_50">
      <!-- Toluquilla -->
      <g style="fill:#e6e6e6;" transform="translate(137.55 176.417975)scale(0.2 -0.2)">
       <use xlink:href="#ArialMT-84"/>
       <use x="49.958984" xlink:href="#ArialMT-111"/>
       <use x="105.574219" xlink:href="#ArialMT-108"/>
       <use x="127.791016" xlink:href="#ArialMT-117"/>
       <use x="183.40625" xlink:href="#ArialMT-113"/>
       <use x="239.021484" xlink:href="#ArialMT-117"/>
       <use x="294.636719" xlink:href="#ArialMT-105"/>
       <use x="316.853516" xlink:href="#ArialMT-108"/>
       <use x="339.070312" xlink:href="#ArialMT-108"/>
       <use x="361.287109" xlink:href="#ArialMT-97"/>
      </g>
     </g>
    </g>
    <g id="ytick_45">
     <g id="line2d_99">
      <path clip-path="url(#p89cc08b85c)" d="M 224.425 142.680171 
L 709.2 142.680171 
" style="fill:none;stroke:#2a3459;stroke-linecap:round;stroke-width:0.8;"/>
     </g>
     <g id="line2d_100"/>
     <g id="text_51">
      <!-- CINVESTAV -->
      <g style="fill:#e6e6e6;" transform="translate(110.5125 149.837983)scale(0.2 -0.2)">
       <use xlink:href="#ArialMT-67"/>
       <use x="72.216797" xlink:href="#ArialMT-73"/>
       <use x="100" xlink:href="#ArialMT-78"/>
       <use x="172.216797" xlink:href="#ArialMT-86"/>
       <use x="238.916016" xlink:href="#ArialMT-69"/>
       <use x="305.615234" xlink:href="#ArialMT-83"/>
       <use x="372.314453" xlink:href="#ArialMT-84"/>
       <use x="426.023438" xlink:href="#ArialMT-65"/>
       <use x="485.347656" xlink:href="#ArialMT-86"/>
      </g>
     </g>
    </g>
    <g id="ytick_46">
     <g id="line2d_101">
      <path clip-path="url(#p89cc08b85c)" d="M 224.425 116.100179 
L 709.2 116.100179 
" style="fill:none;stroke:#2a3459;stroke-linecap:round;stroke-width:0.8;"/>
     </g>
     <g id="line2d_102"/>
     <g id="text_52">
      <!-- 5 de Mayo -->
      <g style="fill:#e6e6e6;" transform="translate(127.54375 123.257991)scale(0.2 -0.2)">
       <defs>
        <path d="M 4.15625 18.75 
L 13.375 19.53125 
Q 14.40625 12.796875 18.140625 9.390625 
Q 21.875 6 27.15625 6 
Q 33.5 6 37.890625 10.78125 
Q 42.28125 15.578125 42.28125 23.484375 
Q 42.28125 31 38.0625 35.34375 
Q 33.84375 39.703125 27 39.703125 
Q 22.75 39.703125 19.328125 37.765625 
Q 15.921875 35.84375 13.96875 32.765625 
L 5.71875 33.84375 
L 12.640625 70.609375 
L 48.25 70.609375 
L 48.25 62.203125 
L 19.671875 62.203125 
L 15.828125 42.96875 
Q 22.265625 47.46875 29.34375 47.46875 
Q 38.71875 47.46875 45.15625 40.96875 
Q 51.609375 34.46875 51.609375 24.265625 
Q 51.609375 14.546875 45.953125 7.46875 
Q 39.0625 -1.21875 27.15625 -1.21875 
Q 17.390625 -1.21875 11.203125 4.25 
Q 5.03125 9.71875 4.15625 18.75 
z
" id="ArialMT-53"/>
       </defs>
       <use xlink:href="#ArialMT-53"/>
       <use x="55.615234" xlink:href="#ArialMT-32"/>
       <use x="83.398438" xlink:href="#ArialMT-100"/>
       <use x="139.013672" xlink:href="#ArialMT-101"/>
       <use x="194.628906" xlink:href="#ArialMT-32"/>
       <use x="222.412109" xlink:href="#ArialMT-77"/>
       <use x="305.712891" xlink:href="#ArialMT-97"/>
       <use x="361.328125" xlink:href="#ArialMT-121"/>
       <use x="411.328125" xlink:href="#ArialMT-111"/>
      </g>
     </g>
    </g>
   </g>
   <g id="patch_3">
    <path clip-path="url(#p89cc08b85c)" d="M 224.425 1322.831818 
L 656.680323 1322.831818 
L 656.680323 1301.567825 
L 224.425 1301.567825 
z
" style="fill:#18c0c4;"/>
   </g>
   <g id="patch_4">
    <path clip-path="url(#p89cc08b85c)" d="M 224.425 1296.251826 
L 686.115476 1296.251826 
L 686.115476 1274.987832 
L 224.425 1274.987832 
z
" style="fill:#18c0c4;"/>
   </g>
   <g id="patch_5">
    <path clip-path="url(#p89cc08b85c)" d="M 224.425 1269.671834 
L 680.906347 1269.671834 
L 680.906347 1248.40784 
L 224.425 1248.40784 
z
" style="fill:#18c0c4;"/>
   </g>
   <g id="patch_6">
    <path clip-path="url(#p89cc08b85c)" d="M 224.425 1243.091842 
L 671.040259 1243.091842 
L 671.040259 1221.827848 
L 224.425 1221.827848 
z
" style="fill:#18c0c4;"/>
   </g>
   <g id="patch_7">
    <path clip-path="url(#p89cc08b85c)" d="M 224.425 1216.51185 
L 670.911885 1216.51185 
L 670.911885 1195.247856 
L 224.425 1195.247856 
z
" style="fill:#18c0c4;"/>
   </g>
   <g id="patch_8">
    <path clip-path="url(#p89cc08b85c)" d="M 224.425 1189.931858 
L 665.1269 1189.931858 
L 665.1269 1168.667864 
L 224.425 1168.667864 
z
" style="fill:#18c0c4;"/>
   </g>
   <g id="patch_9">
    <path clip-path="url(#p89cc08b85c)" d="M 224.425 1163.351866 
L 658.581154 1163.351866 
L 658.581154 1142.087872 
L 224.425 1142.087872 
z
" style="fill:#18c0c4;"/>
   </g>
   <g id="patch_10">
    <path clip-path="url(#p89cc08b85c)" d="M 224.425 1136.771874 
L 653.929834 1136.771874 
L 653.929834 1115.50788 
L 224.425 1115.50788 
z
" style="fill:#18c0c4;"/>
   </g>
   <g id="patch_11">
    <path clip-path="url(#p89cc08b85c)" d="M 224.425 1110.191882 
L 624.316554 1110.191882 
L 624.316554 1088.927888 
L 224.425 1088.927888 
z
" style="fill:#18c0c4;"/>
   </g>
   <g id="patch_12">
    <path clip-path="url(#p89cc08b85c)" d="M 224.425 1083.61189 
L 639.099265 1083.61189 
L 639.099265 1062.347896 
L 224.425 1062.347896 
z
" style="fill:#18c0c4;"/>
   </g>
   <g id="patch_13">
    <path clip-path="url(#p89cc08b85c)" d="M 224.425 1057.031898 
L 638.977027 1057.031898 
L 638.977027 1035.767904 
L 224.425 1035.767904 
z
" style="fill:#18c0c4;"/>
   </g>
   <g id="patch_14">
    <path clip-path="url(#p89cc08b85c)" d="M 224.425 1030.451906 
L 635.628301 1030.451906 
L 635.628301 1009.187912 
L 224.425 1009.187912 
z
" style="fill:#18c0c4;"/>
   </g>
   <g id="patch_15">
    <path clip-path="url(#p89cc08b85c)" d="M 224.425 1003.871913 
L 629.799718 1003.871913 
L 629.799718 982.60792 
L 224.425 982.60792 
z
" style="fill:#18c0c4;"/>
   </g>
   <g id="patch_16">
    <path clip-path="url(#p89cc08b85c)" d="M 224.425 977.291921 
L 626.603355 977.291921 
L 626.603355 956.027928 
L 224.425 956.027928 
z
" style="fill:#18c0c4;"/>
   </g>
   <g id="patch_17">
    <path clip-path="url(#p89cc08b85c)" d="M 224.425 950.711929 
L 620.906312 950.711929 
L 620.906312 929.447936 
L 224.425 929.447936 
z
" style="fill:#18c0c4;"/>
   </g>
   <g id="patch_18">
    <path clip-path="url(#p89cc08b85c)" d="M 224.425 924.131937 
L 620.260413 924.131937 
L 620.260413 902.867944 
L 224.425 902.867944 
z
" style="fill:#18c0c4;"/>
   </g>
   <g id="patch_19">
    <path clip-path="url(#p89cc08b85c)" d="M 224.425 897.551945 
L 608.397423 897.551945 
L 608.397423 876.287952 
L 224.425 876.287952 
z
" style="fill:#18c0c4;"/>
   </g>
   <g id="patch_20">
    <path clip-path="url(#p89cc08b85c)" d="M 224.425 870.971953 
L 628.912215 870.971953 
L 628.912215 849.70796 
L 224.425 849.70796 
z
" style="fill:#18c0c4;"/>
   </g>
   <g id="patch_21">
    <path clip-path="url(#p89cc08b85c)" d="M 224.425 844.391961 
L 600.702734 844.391961 
L 600.702734 823.127967 
L 224.425 823.127967 
z
" style="fill:#18c0c4;"/>
   </g>
   <g id="patch_22">
    <path clip-path="url(#p89cc08b85c)" d="M 224.425 817.811969 
L 574.206597 817.811969 
L 574.206597 796.547975 
L 224.425 796.547975 
z
" style="fill:#18c0c4;"/>
   </g>
   <g id="patch_23">
    <path clip-path="url(#p89cc08b85c)" d="M 224.425 791.231977 
L 598.197771 791.231977 
L 598.197771 769.967983 
L 224.425 769.967983 
z
" style="fill:#18c0c4;"/>
   </g>
   <g id="patch_24">
    <path clip-path="url(#p89cc08b85c)" d="M 224.425 764.651985 
L 596.625758 764.651985 
L 596.625758 743.387991 
L 224.425 743.387991 
z
" style="fill:#18c0c4;"/>
   </g>
   <g id="patch_25">
    <path clip-path="url(#p89cc08b85c)" d="M 224.425 738.071993 
L 593.664955 738.071993 
L 593.664955 716.807999 
L 224.425 716.807999 
z
" style="fill:#18c0c4;"/>
   </g>
   <g id="patch_26">
    <path clip-path="url(#p89cc08b85c)" d="M 224.425 711.492001 
L 614.356419 711.492001 
L 614.356419 690.228007 
L 224.425 690.228007 
z
" style="fill:#18c0c4;"/>
   </g>
   <g id="patch_27">
    <path clip-path="url(#p89cc08b85c)" d="M 224.425 684.912009 
L 581.347147 684.912009 
L 581.347147 663.648015 
L 224.425 663.648015 
z
" style="fill:#18c0c4;"/>
   </g>
   <g id="patch_28">
    <path clip-path="url(#p89cc08b85c)" d="M 224.425 658.332017 
L 554.11606 658.332017 
L 554.11606 637.068023 
L 224.425 637.068023 
z
" style="fill:#18c0c4;"/>
   </g>
   <g id="patch_29">
    <path clip-path="url(#p89cc08b85c)" d="M 224.425 631.752025 
L 588.758397 631.752025 
L 588.758397 610.488031 
L 224.425 610.488031 
z
" style="fill:#18c0c4;"/>
   </g>
   <g id="patch_30">
    <path clip-path="url(#p89cc08b85c)" d="M 224.425 605.172033 
L 562.460426 605.172033 
L 562.460426 583.908039 
L 224.425 583.908039 
z
" style="fill:#18c0c4;"/>
   </g>
   <g id="patch_31">
    <path clip-path="url(#p89cc08b85c)" d="M 224.425 578.59204 
L 552.910997 578.59204 
L 552.910997 557.328047 
L 224.425 557.328047 
z
" style="fill:#18c0c4;"/>
   </g>
   <g id="patch_32">
    <path clip-path="url(#p89cc08b85c)" d="M 224.425 552.012048 
L 551.989218 552.012048 
L 551.989218 530.748055 
L 224.425 530.748055 
z
" style="fill:#18c0c4;"/>
   </g>
   <g id="patch_33">
    <path clip-path="url(#p89cc08b85c)" d="M 224.425 525.432056 
L 568.075509 525.432056 
L 568.075509 504.168063 
L 224.425 504.168063 
z
" style="fill:#18c0c4;"/>
   </g>
   <g id="patch_34">
    <path clip-path="url(#p89cc08b85c)" d="M 224.425 498.852064 
L 526.397799 498.852064 
L 526.397799 477.588071 
L 224.425 477.588071 
z
" style="fill:#18c0c4;"/>
   </g>
   <g id="patch_35">
    <path clip-path="url(#p89cc08b85c)" d="M 224.425 472.272072 
L 560.056482 472.272072 
L 560.056482 451.008079 
L 224.425 451.008079 
z
" style="fill:#18c0c4;"/>
   </g>
   <g id="patch_36">
    <path clip-path="url(#p89cc08b85c)" d="M 224.425 445.69208 
L 559.47527 445.69208 
L 559.47527 424.428087 
L 224.425 424.428087 
z
" style="fill:#18c0c4;"/>
   </g>
   <g id="patch_37">
    <path clip-path="url(#p89cc08b85c)" d="M 224.425 419.112088 
L 531.465978 419.112088 
L 531.465978 397.848094 
L 224.425 397.848094 
z
" style="fill:#18c0c4;"/>
   </g>
   <g id="patch_38">
    <path clip-path="url(#p89cc08b85c)" d="M 224.425 392.532096 
L 528.831607 392.532096 
L 528.831607 371.268102 
L 224.425 371.268102 
z
" style="fill:#18c0c4;"/>
   </g>
   <g id="patch_39">
    <path clip-path="url(#p89cc08b85c)" d="M 224.425 365.952104 
L 523.311847 365.952104 
L 523.311847 344.68811 
L 224.425 344.68811 
z
" style="fill:#18c0c4;"/>
   </g>
   <g id="patch_40">
    <path clip-path="url(#p89cc08b85c)" d="M 224.425 339.372112 
L 501.533755 339.372112 
L 501.533755 318.108118 
L 224.425 318.108118 
z
" style="fill:#18c0c4;"/>
   </g>
   <g id="patch_41">
    <path clip-path="url(#p89cc08b85c)" d="M 224.425 312.79212 
L 493.262138 312.79212 
L 493.262138 291.528126 
L 224.425 291.528126 
z
" style="fill:#18c0c4;"/>
   </g>
   <g id="patch_42">
    <path clip-path="url(#p89cc08b85c)" d="M 224.425 286.212128 
L 460.902881 286.212128 
L 460.902881 264.948134 
L 224.425 264.948134 
z
" style="fill:#18c0c4;"/>
   </g>
   <g id="patch_43">
    <path clip-path="url(#p89cc08b85c)" d="M 224.425 259.632136 
L 460.101745 259.632136 
L 460.101745 238.368142 
L 224.425 238.368142 
z
" style="fill:#18c0c4;"/>
   </g>
   <g id="patch_44">
    <path clip-path="url(#p89cc08b85c)" d="M 224.425 233.052144 
L 452.613073 233.052144 
L 452.613073 211.78815 
L 224.425 211.78815 
z
" style="fill:#18c0c4;"/>
   </g>
   <g id="patch_45">
    <path clip-path="url(#p89cc08b85c)" d="M 224.425 206.472152 
L 439.323442 206.472152 
L 439.323442 185.208158 
L 224.425 185.208158 
z
" style="fill:#18c0c4;"/>
   </g>
   <g id="patch_46">
    <path clip-path="url(#p89cc08b85c)" d="M 224.425 179.89216 
L 438.004158 179.89216 
L 438.004158 158.628166 
L 224.425 158.628166 
z
" style="fill:#18c0c4;"/>
   </g>
   <g id="patch_47">
    <path clip-path="url(#p89cc08b85c)" d="M 224.425 153.312168 
L 424.005631 153.312168 
L 424.005631 132.048174 
L 224.425 132.048174 
z
" style="fill:#18c0c4;"/>
   </g>
   <g id="patch_48">
    <path clip-path="url(#p89cc08b85c)" d="M 224.425 126.732175 
L 394.788899 126.732175 
L 394.788899 105.468182 
L 224.425 105.468182 
z
" style="fill:#18c0c4;"/>
   </g>
   <g id="patch_49">
    <path d="M 224.425 1383.7 
L 224.425 44.6 
" style="fill:none;"/>
   </g>
   <g id="patch_50">
    <path d="M 709.2 1383.7 
L 709.2 44.6 
" style="fill:none;"/>
   </g>
   <g id="patch_51">
    <path d="M 224.425 1383.7 
L 709.2 1383.7 
" style="fill:none;"/>
   </g>
   <g id="patch_52">
    <path d="M 224.425 44.6 
L 709.2 44.6 
" style="fill:none;"/>
   </g>
  </g>
  <g id="text_53">
   <!-- Emisiones por transporte -->
   <g style="fill:#e6e6e6;" transform="translate(221.056641 46.694531)scale(0.25 -0.25)">
    <use xlink:href="#ArialMT-69"/>
    <use x="66.699219" xlink:href="#ArialMT-109"/>
    <use x="150" xlink:href="#ArialMT-105"/>
    <use x="172.216797" xlink:href="#ArialMT-115"/>
    <use x="222.216797" xlink:href="#ArialMT-105"/>
    <use x="244.433594" xlink:href="#ArialMT-111"/>
    <use x="300.048828" xlink:href="#ArialMT-110"/>
    <use x="355.664062" xlink:href="#ArialMT-101"/>
    <use x="411.279297" xlink:href="#ArialMT-115"/>
    <use x="461.279297" xlink:href="#ArialMT-32"/>
    <use x="489.0625" xlink:href="#ArialMT-112"/>
    <use x="544.677734" xlink:href="#ArialMT-111"/>
    <use x="600.292969" xlink:href="#ArialMT-114"/>
    <use x="633.59375" xlink:href="#ArialMT-32"/>
    <use x="661.376953" xlink:href="#ArialMT-116"/>
    <use x="689.160156" xlink:href="#ArialMT-114"/>
    <use x="722.460938" xlink:href="#ArialMT-97"/>
    <use x="778.076172" xlink:href="#ArialMT-110"/>
    <use x="833.691406" xlink:href="#ArialMT-115"/>
    <use x="883.691406" xlink:href="#ArialMT-112"/>
    <use x="939.306641" xlink:href="#ArialMT-111"/>
    <use x="994.921875" xlink:href="#ArialMT-114"/>
    <use x="1028.222656" xlink:href="#ArialMT-116"/>
    <use x="1056.005859" xlink:href="#ArialMT-101"/>
   </g>
  </g>
 </g>
 <defs>
  <clipPath id="p89cc08b85c">
   <rect height="1339.1" width="484.775" x="224.425" y="44.6"/>
  </clipPath>
 </defs>
</svg>
